<svg width="73" height="73" viewBox="0 0 73 73" fill="none" xmlns="http://www.w3.org/2000/svg">
<g filter="url(#filter0_bd_7283_15710)">
<path d="M65 32.5052C65 48.4796 52.0455 61 36.5 61C20.5227 61 8 48.0478 8 32.5052C8 16.5309 20.9545 4.01049 36.5 4.01049C52.0455 3.57875 65 16.5309 65 32.5052Z" fill="white" fill-opacity="0.95"/>
<g filter="url(#filter1_d_7283_15710)">
<path d="M44.2438 22.5292V41.6447L42.6341 43.1739H31.3661L29.7563 41.6447V22.5292C29.7563 21.6843 30.4767 21 31.3661 21H42.6341C43.5235 21 44.2438 21.6843 44.2438 22.5292Z" fill="#AD33F8"/>
</g>
<path d="M37.0001 27.8816C39.8896 27.8816 42.2317 30.1066 42.2317 32.8516C42.2317 35.5966 39.8896 37.8216 37.0001 37.8216C34.1107 37.8216 31.7686 35.5966 31.7686 32.8516C31.7686 30.1066 34.1107 27.8816 37.0001 27.8816Z" fill="#6D05AC"/>
<path d="M36.9999 29.4109V33.234L34.9878 32.8517L36.9999 29.4109Z" fill="#C47EB8"/>
<path d="M39.0121 32.8516L37 36.2923V33.2339L39.0121 32.8516Z" fill="#620774"/>
<path d="M36.9999 33.2339V36.2923L34.9878 32.8516L36.9999 33.2339Z" fill="#9D2888"/>
<path d="M37 29.4109L39.0121 32.8517L37 33.234V29.4109Z" fill="#9D2888"/>
<path d="M44.2438 41.6448V43.174C44.2438 44.0189 43.5235 44.7032 42.6341 44.7032H31.3661C30.4767 44.7032 29.7563 44.0189 29.7563 43.174V41.6448L31.3661 43.174H42.6341L44.2438 41.6448Z" fill="#6D05AC"/>
<path d="M30.9365 22.3996V23.0778C30.9365 23.4024 31.3494 23.5649 31.5909 23.3355L32.3257 22.6374C32.5708 22.4046 32.3905 22.0066 32.0436 22.0158L31.3088 22.0357C31.1019 22.041 30.9365 22.2023 30.9365 22.3996Z" fill="#6D05AC"/>
</g>
<defs>
<filter id="filter0_bd_7283_15710" x="-22" y="-26" width="117" height="117" filterUnits="userSpaceOnUse" color-interpolation-filters="sRGB">
<feFlood flood-opacity="0" result="BackgroundImageFix"/>
<feGaussianBlur in="BackgroundImageFix" stdDeviation="15"/>
<feComposite in2="SourceAlpha" operator="in" result="effect1_backgroundBlur_7283_15710"/>
<feColorMatrix in="SourceAlpha" type="matrix" values="0 0 0 0 0 0 0 0 0 0 0 0 0 0 0 0 0 0 127 0" result="hardAlpha"/>
<feOffset dy="4"/>
<feGaussianBlur stdDeviation="4"/>
<feComposite in2="hardAlpha" operator="out"/>
<feColorMatrix type="matrix" values="0 0 0 0 0 0 0 0 0 0 0 0 0 0 0 0 0 0 0.12 0"/>
<feBlend mode="normal" in2="effect1_backgroundBlur_7283_15710" result="effect2_dropShadow_7283_15710"/>
<feBlend mode="normal" in="SourceGraphic" in2="effect2_dropShadow_7283_15710" result="shape"/>
</filter>
<filter id="filter1_d_7283_15710" x="23.7563" y="17" width="26.4873" height="34.1738" filterUnits="userSpaceOnUse" color-interpolation-filters="sRGB">
<feFlood flood-opacity="0" result="BackgroundImageFix"/>
<feColorMatrix in="SourceAlpha" type="matrix" values="0 0 0 0 0 0 0 0 0 0 0 0 0 0 0 0 0 0 127 0" result="hardAlpha"/>
<feOffset dy="2"/>
<feGaussianBlur stdDeviation="3"/>
<feComposite in2="hardAlpha" operator="out"/>
<feColorMatrix type="matrix" values="0 0 0 0 0.678431 0 0 0 0 0.2 0 0 0 0 0.972549 0 0 0 0.5 0"/>
<feBlend mode="normal" in2="BackgroundImageFix" result="effect1_dropShadow_7283_15710"/>
<feBlend mode="normal" in="SourceGraphic" in2="effect1_dropShadow_7283_15710" result="shape"/>
</filter>
</defs>
</svg>
