<svg width="73" height="73" viewBox="0 0 73 73" fill="none" xmlns="http://www.w3.org/2000/svg">
<g filter="url(#filter0_bd_7283_15683)">
<path d="M65 32.5052C65 48.4796 52.0455 61 36.5 61C20.5227 61 8 48.0478 8 32.5052C8 16.5309 20.9545 4.01049 36.5 4.01049C52.0455 3.57875 65 16.5309 65 32.5052Z" fill="white" fill-opacity="0.95"/>
<path d="M49.9062 36.1792C49.4744 36.1792 49.1243 35.8151 49.1243 35.366C49.1243 34.8383 48.4668 34.1912 47.3655 33.6353C46.034 32.9632 44.1615 32.4438 41.9503 32.1335C41.5224 32.0735 41.2223 31.664 41.2801 31.219C41.3378 30.7739 41.7314 30.4614 42.1595 30.5219C44.5331 30.855 46.5694 31.4257 48.0484 32.1722C50.2301 33.2737 50.6881 34.517 50.6881 35.366C50.6881 35.8151 50.338 36.1792 49.9062 36.1792Z" fill="#A547DE"/>
<path d="M46.9192 37.4509L45.0068 36.5949C44.6104 36.4174 44.1503 36.6078 43.9796 37.0204C43.8089 37.4329 43.992 37.9112 44.3887 38.0888L44.4588 38.1202C42.3986 38.6302 39.912 38.9076 37.3439 38.9076C34.0703 38.9076 31.0035 38.4694 28.7085 37.6739C26.3873 36.8692 25.5637 35.9277 25.5637 35.3659C25.5637 34.8382 26.2212 34.1912 27.3225 33.6352C28.654 32.9631 30.5265 32.4438 32.7377 32.1335C33.1657 32.0735 33.4657 31.664 33.408 31.2189C33.3502 30.7738 32.9563 30.4617 32.5286 30.5218C30.1549 30.8549 28.1186 31.4256 26.6397 32.1722C24.458 33.2736 24 34.5168 24 35.3659C24 36.4562 24.7311 38.0093 28.214 39.2167C30.6642 40.0661 33.9067 40.5339 37.3439 40.5339C40.1756 40.5339 42.9266 40.208 45.1739 39.6115L45.0689 39.8652C44.8982 40.2777 45.0813 40.7561 45.478 40.9336C45.5787 40.9787 45.6835 41 45.7867 41C46.0896 41 46.3779 40.8159 46.5053 40.5082L47.3283 38.5193C47.499 38.1068 47.3158 37.6285 46.9192 37.4509Z" fill="#6D05AC"/>
<path d="M46.9197 37.451L45.0073 36.595C44.6109 36.4175 44.1508 36.6079 43.9801 37.0205C43.8094 37.433 43.9925 37.9113 44.3892 38.0889L44.4593 38.1202C42.3992 38.6303 39.9127 38.9077 37.3447 38.9077V40.534C40.1764 40.534 42.9272 40.208 45.1744 39.6115L45.0694 39.8653C44.8987 40.2778 45.0818 40.7561 45.4785 40.9337C45.5792 40.9788 45.684 41.0001 45.7872 41.0001C46.0901 41.0001 46.3784 40.816 46.5058 40.5082L47.3288 38.5194C47.4995 38.1068 47.3164 37.6286 46.9197 37.451Z" fill="#A547DE"/>
<path d="M42.7261 26.9198L37.3438 30.4785L31.9614 26.9198C32.0652 26.7025 32.2347 26.5216 32.451 26.4092L36.8534 24.1203C37.1618 23.9599 37.525 23.9599 37.8333 24.1203L42.2357 26.4092C42.4521 26.5216 42.6223 26.7025 42.7261 26.9198Z" fill="#6D05AC"/>
<path d="M42.2362 26.4091L37.8338 24.1202C37.6797 24.0401 37.512 24.0001 37.3442 24V30.4785L42.7266 26.9198C42.6228 26.7025 42.4526 26.5216 42.2362 26.4091Z" fill="#6D05AC"/>
<path d="M42.726 26.9197L37.8339 29.4636C37.5253 29.624 37.1621 29.624 36.8536 29.4636L31.9614 26.9197C31.8861 27.0747 31.8452 27.2487 31.8452 27.4288V33.1518C31.8452 33.5842 32.0798 33.9787 32.451 34.1716L36.8534 36.4613C37.0076 36.5411 37.1756 36.5814 37.3437 36.5814C37.511 36.5814 37.6791 36.5411 37.8332 36.4613L42.2357 34.1716C42.6076 33.9786 42.8422 33.5842 42.8422 33.1518V27.4288C42.8422 27.2487 42.8013 27.0747 42.726 26.9197Z" fill="#9212DF"/>
<path d="M37.8338 36.4614L42.2363 34.1717C42.6082 33.9787 42.8428 33.5843 42.8428 33.1519V27.4288C42.8428 27.2487 42.8019 27.0747 42.7266 26.9197L37.8344 29.4636C37.6801 29.5438 37.5122 29.5839 37.3442 29.5839V36.5814C37.5116 36.5814 37.6797 36.5411 37.8338 36.4614Z" fill="#9212DF"/>
</g>
<defs>
<filter id="filter0_bd_7283_15683" x="-22" y="-26" width="117" height="117" filterUnits="userSpaceOnUse" color-interpolation-filters="sRGB">
<feFlood flood-opacity="0" result="BackgroundImageFix"/>
<feGaussianBlur in="BackgroundImageFix" stdDeviation="15"/>
<feComposite in2="SourceAlpha" operator="in" result="effect1_backgroundBlur_7283_15683"/>
<feColorMatrix in="SourceAlpha" type="matrix" values="0 0 0 0 0 0 0 0 0 0 0 0 0 0 0 0 0 0 127 0" result="hardAlpha"/>
<feOffset dy="4"/>
<feGaussianBlur stdDeviation="4"/>
<feComposite in2="hardAlpha" operator="out"/>
<feColorMatrix type="matrix" values="0 0 0 0 0 0 0 0 0 0 0 0 0 0 0 0 0 0 0.12 0"/>
<feBlend mode="normal" in2="effect1_backgroundBlur_7283_15683" result="effect2_dropShadow_7283_15683"/>
<feBlend mode="normal" in="SourceGraphic" in2="effect2_dropShadow_7283_15683" result="shape"/>
</filter>
</defs>
</svg>
