<svg width="73" height="73" viewBox="0 0 73 73" fill="none" xmlns="http://www.w3.org/2000/svg">
<g filter="url(#filter0_bd_7283_15673)">
<path d="M65 32.5052C65 48.4796 52.0455 61 36.5 61C20.5227 61 8 48.0478 8 32.5052C8 16.5309 20.9545 4.01049 36.5 4.01049C52.0455 3.57875 65 16.5309 65 32.5052Z" fill="white" fill-opacity="0.95"/>
<path d="M47.6443 36.6011L37.2885 31.4233C37.1071 31.3325 36.8935 31.3325 36.7121 31.4233L26.3563 36.6011C26.1379 36.7103 26 36.9335 26 37.1776C26 37.4218 26.1379 37.645 26.3563 37.7541L36.7121 42.932C36.8028 42.9773 36.9015 43 37.0003 43C37.099 43 37.1978 42.9773 37.2885 42.932L47.6443 37.7541C47.8626 37.645 48.0006 37.4218 48.0006 37.1776C48.0006 36.9335 47.8626 36.7103 47.6443 36.6011Z" fill="#385A81"/>
<path d="M47.6438 36.6009L37.2881 31.4231C37.1926 31.3753 37.0883 31.3534 36.9844 31.3559V42.999C36.9895 42.9991 36.9947 42.9999 36.9998 42.9999C37.0986 42.9999 37.1974 42.9772 37.2881 42.9318L47.6438 37.7539C47.8622 37.6448 48.0001 37.4216 48.0001 37.1774C48.0001 36.9333 47.8622 36.7101 47.6438 36.6009Z" fill="#274265"/>
<path d="M47.6443 31.4229L37.2885 26.245C37.1071 26.1543 36.8935 26.1543 36.7121 26.245L26.3563 31.4229C26.1379 31.532 26 31.7552 26 31.9994C26 32.2435 26.1379 32.4667 26.3563 32.5759L36.7121 37.7537C36.8028 37.7991 36.9015 37.8218 37.0003 37.8218C37.099 37.8218 37.1978 37.7991 37.2885 37.7537L47.6443 32.5759C47.8626 32.4667 48.0006 32.2435 48.0006 31.9994C48.0006 31.7553 47.8626 31.532 47.6443 31.4229Z" fill="#EDF6FC"/>
<path d="M47.6438 31.4232L37.2881 26.2453C37.1926 26.1976 37.0883 26.1757 36.9844 26.1782V37.8212C36.9895 37.8213 36.9947 37.8221 36.9998 37.8221C37.0986 37.8221 37.1974 37.7994 37.2881 37.754L47.6438 32.5762C47.8622 32.467 48.0001 32.2438 48.0001 31.9997C48.0001 31.7556 47.8622 31.5323 47.6438 31.4232Z" fill="#D2E1FE"/>
<g filter="url(#filter1_d_7283_15673)">
<path d="M47.6443 26.2464L37.2885 21.0685C37.1071 20.9778 36.8935 20.9778 36.7121 21.0685L26.3563 26.2464C26.1379 26.3555 26 26.5787 26 26.8229C26 27.067 26.1379 27.2902 26.3563 27.3994L36.7121 32.5772C36.8028 32.6226 36.9015 32.6453 37.0003 32.6453C37.099 32.6453 37.1978 32.6226 37.2885 32.5772L47.6443 27.3994C47.8626 27.2902 48.0006 27.067 48.0006 26.8229C48.0006 26.5787 47.8626 26.3555 47.6443 26.2464Z" fill="#389FFE"/>
</g>
<g filter="url(#filter2_d_7283_15673)">
<path d="M47.6438 26.2452L37.2881 21.0674C37.1926 21.0196 37.0883 20.9977 36.9844 21.0002V32.6432C36.9895 32.6434 36.9947 32.6441 36.9998 32.6441C37.0986 32.6441 37.1974 32.6214 37.2881 32.5761L47.6438 27.3982C47.8622 27.289 48.0001 27.0659 48.0001 26.8217C48.0001 26.5776 47.8622 26.3544 47.6438 26.2452Z" fill="#389FFE"/>
</g>
</g>
<defs>
<filter id="filter0_bd_7283_15673" x="-22" y="-26" width="117" height="117" filterUnits="userSpaceOnUse" color-interpolation-filters="sRGB">
<feFlood flood-opacity="0" result="BackgroundImageFix"/>
<feGaussianBlur in="BackgroundImageFix" stdDeviation="15"/>
<feComposite in2="SourceAlpha" operator="in" result="effect1_backgroundBlur_7283_15673"/>
<feColorMatrix in="SourceAlpha" type="matrix" values="0 0 0 0 0 0 0 0 0 0 0 0 0 0 0 0 0 0 127 0" result="hardAlpha"/>
<feOffset dy="4"/>
<feGaussianBlur stdDeviation="4"/>
<feComposite in2="hardAlpha" operator="out"/>
<feColorMatrix type="matrix" values="0 0 0 0 0 0 0 0 0 0 0 0 0 0 0 0 0 0 0.12 0"/>
<feBlend mode="normal" in2="effect1_backgroundBlur_7283_15673" result="effect2_dropShadow_7283_15673"/>
<feBlend mode="normal" in="SourceGraphic" in2="effect2_dropShadow_7283_15673" result="shape"/>
</filter>
<filter id="filter1_d_7283_15673" x="6" y="7.00049" width="62.0005" height="51.6448" filterUnits="userSpaceOnUse" color-interpolation-filters="sRGB">
<feFlood flood-opacity="0" result="BackgroundImageFix"/>
<feColorMatrix in="SourceAlpha" type="matrix" values="0 0 0 0 0 0 0 0 0 0 0 0 0 0 0 0 0 0 127 0" result="hardAlpha"/>
<feOffset dy="6"/>
<feGaussianBlur stdDeviation="10"/>
<feComposite in2="hardAlpha" operator="out"/>
<feColorMatrix type="matrix" values="0 0 0 0 0.219608 0 0 0 0 0.623529 0 0 0 0 0.996078 0 0 0 0.63 0"/>
<feBlend mode="normal" in2="BackgroundImageFix" result="effect1_dropShadow_7283_15673"/>
<feBlend mode="normal" in="SourceGraphic" in2="effect1_dropShadow_7283_15673" result="shape"/>
</filter>
<filter id="filter2_d_7283_15673" x="16.9844" y="7" width="51.0156" height="51.644" filterUnits="userSpaceOnUse" color-interpolation-filters="sRGB">
<feFlood flood-opacity="0" result="BackgroundImageFix"/>
<feColorMatrix in="SourceAlpha" type="matrix" values="0 0 0 0 0 0 0 0 0 0 0 0 0 0 0 0 0 0 127 0" result="hardAlpha"/>
<feOffset dy="6"/>
<feGaussianBlur stdDeviation="10"/>
<feComposite in2="hardAlpha" operator="out"/>
<feColorMatrix type="matrix" values="0 0 0 0 0.219608 0 0 0 0 0.623529 0 0 0 0 0.996078 0 0 0 0.63 0"/>
<feBlend mode="normal" in2="BackgroundImageFix" result="effect1_dropShadow_7283_15673"/>
<feBlend mode="normal" in="SourceGraphic" in2="effect1_dropShadow_7283_15673" result="shape"/>
</filter>
</defs>
</svg>
