<svg width="116" height="34" viewBox="0 0 116 34" fill="none" xmlns="http://www.w3.org/2000/svg">
<path opacity="0.22" d="M46.104 16.912C46.104 14.528 46.912 12.528 48.528 10.912C50.144 9.312 52.176 8.512 54.624 8.512C56.256 8.512 57.728 8.896 59.04 9.664C60.368 10.432 61.392 11.488 62.112 12.832L59.784 13.72C59.272 12.808 58.56 12.096 57.648 11.584C56.736 11.072 55.728 10.816 54.624 10.816C52.912 10.816 51.472 11.4 50.304 12.568C49.152 13.72 48.576 15.168 48.576 16.912C48.576 18.624 49.128 20.072 50.232 21.256C51.368 22.408 52.744 22.984 54.36 22.984C55.752 22.984 56.968 22.568 58.008 21.736C59.064 20.888 59.736 19.816 60.024 18.52H54V16.288H62.712C62.744 16.704 62.76 16.944 62.76 17.008C62.744 19.344 61.936 21.312 60.336 22.912C58.752 24.496 56.784 25.288 54.432 25.288C52.064 25.288 50.08 24.488 48.48 22.888C46.896 21.288 46.104 19.296 46.104 16.912ZM69.8946 13.912C71.2866 13.912 72.4786 14.384 73.4706 15.328V14.2H75.6306V25H73.4706V23.872C72.4786 24.816 71.2866 25.288 69.8946 25.288C68.4066 25.288 67.1426 24.744 66.1026 23.656C65.0946 22.584 64.5906 21.232 64.5906 19.6C64.5906 17.984 65.0946 16.632 66.1026 15.544C67.1426 14.456 68.4066 13.912 69.8946 13.912ZM72.4626 17.104C71.8386 16.432 71.0626 16.096 70.1346 16.096C69.2226 16.096 68.4386 16.432 67.7826 17.104C67.1586 17.776 66.8466 18.608 66.8466 19.6C66.8466 20.592 67.1586 21.424 67.7826 22.096C68.4386 22.768 69.2226 23.104 70.1346 23.104C71.0626 23.104 71.8386 22.768 72.4626 22.096C73.1026 21.44 73.4226 20.608 73.4226 19.6C73.4226 18.592 73.1026 17.76 72.4626 17.104ZM77.2568 16.12V14.2H78.8888V12.04H81.0728V14.2H84.0008V16.12H81.0728V21.424C81.0728 21.84 81.2088 22.192 81.4808 22.48C81.7528 22.768 82.0888 22.912 82.4888 22.912H84.0008V25H82.3448C81.3688 25 80.5448 24.688 79.8728 24.064C79.2168 23.408 78.8888 22.616 78.8888 21.688V16.12H77.2568ZM96.6568 20.392H87.7288C87.9048 21.224 88.3128 21.912 88.9528 22.456C89.6088 22.984 90.3848 23.248 91.2808 23.248C92.4808 23.248 93.4328 22.8 94.1368 21.904L96.2488 22.552C95.7688 23.384 95.0808 24.048 94.1848 24.544C93.3048 25.04 92.3368 25.288 91.2808 25.288C89.6488 25.288 88.2728 24.744 87.1528 23.656C86.0488 22.568 85.4968 21.216 85.4968 19.6C85.4968 17.968 86.0328 16.616 87.1048 15.544C88.1928 14.456 89.5288 13.912 91.1128 13.912C92.6808 13.912 94.0088 14.456 95.0968 15.544C96.1688 16.616 96.7048 17.968 96.7048 19.6C96.7048 19.904 96.6888 20.168 96.6568 20.392ZM87.7528 18.664H94.4728C94.2808 17.848 93.8728 17.192 93.2488 16.696C92.6248 16.2 91.8968 15.952 91.0648 15.952C90.2648 15.952 89.5528 16.208 88.9288 16.72C88.3208 17.216 87.9288 17.864 87.7528 18.664ZM100.91 25H98.7503V14.2H100.91V25ZM99.8303 9.304C100.23 9.304 100.566 9.44 100.838 9.712C101.11 9.984 101.246 10.32 101.246 10.72C101.246 11.36 100.95 11.8 100.358 12.04C99.7663 12.28 99.2463 12.184 98.7983 11.752C98.3663 11.304 98.2703 10.784 98.5103 10.192C98.7503 9.6 99.1903 9.304 99.8303 9.304ZM104.73 23.656C103.658 22.584 103.122 21.232 103.122 19.6C103.122 17.968 103.658 16.616 104.73 15.544C105.818 14.456 107.17 13.912 108.786 13.912C110.402 13.912 111.754 14.456 112.842 15.544C113.93 16.632 114.474 17.984 114.474 19.6C114.474 21.216 113.93 22.568 112.842 23.656C111.754 24.744 110.402 25.288 108.786 25.288C107.17 25.288 105.818 24.744 104.73 23.656ZM106.338 17.104C105.698 17.76 105.378 18.592 105.378 19.6C105.378 20.608 105.698 21.44 106.338 22.096C106.978 22.768 107.794 23.104 108.786 23.104C109.746 23.104 110.554 22.768 111.21 22.096C111.866 21.408 112.194 20.576 112.194 19.6C112.194 18.624 111.866 17.792 111.21 17.104C110.554 16.432 109.746 16.096 108.786 16.096C107.794 16.096 106.978 16.432 106.338 17.104Z" fill="#CDCFFF"/>
<path opacity="0.22" d="M13.3209 16.7321L13.0264 16.4357C12.8035 16.2131 12.4205 16.3707 12.4205 16.6864V20.9192C12.4205 21.1147 12.5809 21.2737 12.7769 21.2737H17.0111C17.3268 21.2737 17.4857 20.8914 17.2612 20.6691C17.1228 20.5307 17.1228 20.3065 17.2612 20.1684L21.7647 15.6514C21.9035 15.5138 21.9035 15.2897 21.7647 15.1507L21.3544 14.742C21.1315 14.5193 21.2904 14.1369 21.6052 14.1369H25.8368C26.0325 14.1369 26.1926 14.2958 26.1926 14.4914V18.7239C26.1926 19.0395 25.8089 19.1976 25.5855 18.9746L25.3002 18.6895C25.1609 18.5472 24.9368 18.5472 24.8004 18.6895L17.2076 26.2781C17.0697 26.4162 16.8459 26.4162 16.7063 26.2781L7.41697 16.9895C7.27733 16.8498 7.27733 16.6254 7.41697 16.4867L20.2766 3.62871C20.4147 3.49029 20.4147 3.26446 20.2766 3.12665L17.2527 0.103357C17.1143 -0.0344522 16.8902 -0.0344522 16.7511 0.103357L0.103365 16.7503C-0.0344551 16.8887 -0.0344551 17.1145 0.103365 17.2523L16.7494 33.8968C16.8878 34.0344 17.1138 34.0344 17.2516 33.8968L33.8968 17.2523C34.0344 17.1139 34.0344 16.8893 33.8968 16.7514L24.1038 6.95906C23.9668 6.82125 23.7415 6.82125 23.6028 6.95906L13.8248 16.7322C13.6852 16.8718 13.4605 16.8718 13.3209 16.7322V16.7321Z" fill="#CDCFFF"/>
</svg>
