<svg width="130" height="34" viewBox="0 0 130 34" fill="none" xmlns="http://www.w3.org/2000/svg">
<path opacity="0.22" d="M54.84 25H46.656V8.8H54.384C55.744 8.8 56.872 9.208 57.768 10.024C58.68 10.84 59.136 11.864 59.136 13.096C59.136 14.472 58.56 15.592 57.408 16.456C58.176 16.84 58.776 17.384 59.208 18.088C59.656 18.792 59.88 19.568 59.88 20.416C59.88 21.712 59.4 22.808 58.44 23.704C57.48 24.568 56.28 25 54.84 25ZM54.84 17.728H49.056V22.768H54.84C55.576 22.768 56.184 22.528 56.664 22.048C57.16 21.568 57.408 20.968 57.408 20.248C57.408 19.528 57.16 18.928 56.664 18.448C56.184 17.968 55.576 17.728 54.84 17.728ZM54.384 11.032H49.056V15.496H54.384C55.04 15.496 55.584 15.288 56.016 14.872C56.448 14.44 56.664 13.904 56.664 13.264C56.664 12.624 56.448 12.096 56.016 11.68C55.584 11.248 55.04 11.032 54.384 11.032ZM64.4415 25H62.2815V14.2H64.4415V25ZM63.3615 9.304C63.7615 9.304 64.0975 9.44 64.3695 9.712C64.6415 9.984 64.7775 10.32 64.7775 10.72C64.7775 11.36 64.4815 11.8 63.8895 12.04C63.2975 12.28 62.7775 12.184 62.3295 11.752C61.8975 11.304 61.8015 10.784 62.0415 10.192C62.2815 9.6 62.7215 9.304 63.3615 9.304ZM67.1331 25V14.2H69.2931V15.76C70.1091 14.528 71.2851 13.912 72.8211 13.912C74.0691 13.912 75.1011 14.32 75.9171 15.136C76.7331 15.92 77.1411 16.928 77.1411 18.16V25H74.9571V18.784C74.9571 17.984 74.6931 17.32 74.1651 16.792C73.6371 16.264 72.9811 16 72.1971 16C71.3811 16 70.6931 16.272 70.1331 16.816C69.5731 17.344 69.2931 18.008 69.2931 18.808V25H67.1331ZM84.6367 13.912C86.0288 13.912 87.2208 14.384 88.2128 15.328V14.2H90.3728V25H88.2128V23.872C87.2208 24.816 86.0288 25.288 84.6367 25.288C83.1488 25.288 81.8848 24.744 80.8448 23.656C79.8368 22.584 79.3328 21.232 79.3328 19.6C79.3328 17.984 79.8368 16.632 80.8448 15.544C81.8848 14.456 83.1488 13.912 84.6367 13.912ZM87.2048 17.104C86.5808 16.432 85.8048 16.096 84.8768 16.096C83.9648 16.096 83.1808 16.432 82.5248 17.104C81.9008 17.776 81.5888 18.608 81.5888 19.6C81.5888 20.592 81.9008 21.424 82.5248 22.096C83.1808 22.768 83.9648 23.104 84.8768 23.104C85.8048 23.104 86.5808 22.768 87.2048 22.096C87.8448 21.44 88.1648 20.608 88.1648 19.6C88.1648 18.592 87.8448 17.76 87.2048 17.104ZM93.0549 25V14.2H95.2149V15.76C96.0309 14.528 97.2069 13.912 98.7429 13.912C99.9909 13.912 101.023 14.32 101.839 15.136C102.655 15.92 103.063 16.928 103.063 18.16V25H100.879V18.784C100.879 17.984 100.615 17.32 100.087 16.792C99.5589 16.264 98.9029 16 98.1189 16C97.3029 16 96.6149 16.272 96.0549 16.816C95.4949 17.344 95.2149 18.008 95.2149 18.808V25H93.0549ZM116.151 17.32L113.967 17.992C113.695 17.416 113.287 16.96 112.743 16.624C112.199 16.272 111.591 16.096 110.919 16.096C109.927 16.096 109.111 16.432 108.471 17.104C107.831 17.76 107.511 18.592 107.511 19.6C107.511 20.608 107.831 21.44 108.471 22.096C109.111 22.768 109.927 23.104 110.919 23.104C111.591 23.104 112.199 22.936 112.743 22.6C113.287 22.248 113.695 21.784 113.967 21.208L116.151 21.856C115.719 22.912 115.031 23.752 114.087 24.376C113.159 24.984 112.103 25.288 110.919 25.288C109.303 25.288 107.951 24.744 106.863 23.656C105.791 22.584 105.255 21.232 105.255 19.6C105.255 17.968 105.791 16.616 106.863 15.544C107.951 14.456 109.303 13.912 110.919 13.912C112.119 13.912 113.183 14.216 114.111 14.824C115.039 15.432 115.719 16.264 116.151 17.32ZM128.79 20.392H119.862C120.038 21.224 120.446 21.912 121.086 22.456C121.742 22.984 122.518 23.248 123.414 23.248C124.614 23.248 125.566 22.8 126.27 21.904L128.382 22.552C127.902 23.384 127.214 24.048 126.318 24.544C125.438 25.04 124.47 25.288 123.414 25.288C121.782 25.288 120.406 24.744 119.286 23.656C118.182 22.568 117.63 21.216 117.63 19.6C117.63 17.968 118.166 16.616 119.238 15.544C120.326 14.456 121.662 13.912 123.246 13.912C124.814 13.912 126.142 14.456 127.23 15.544C128.302 16.616 128.838 17.968 128.838 19.6C128.838 19.904 128.822 20.168 128.79 20.392ZM119.886 18.664H126.606C126.414 17.848 126.006 17.192 125.382 16.696C124.758 16.2 124.03 15.952 123.198 15.952C122.398 15.952 121.686 16.208 121.062 16.72C120.454 17.216 120.062 17.864 119.886 18.664Z" fill="#CDCFFF"/>
<g opacity="0.22">
<path d="M15.7451 17.1997L16.7991 18.2538C16.9097 18.3644 17.0891 18.3644 17.1997 18.2538L18.2538 17.1997C18.3644 17.0891 18.3644 16.9097 18.2538 16.7991L17.1997 15.7451C17.0891 15.6345 16.9097 15.6345 16.7991 15.7451L15.7451 16.7991C15.6345 16.9097 15.6345 17.0891 15.7451 17.1997Z" fill="#CDCFFF"/>
<path d="M23.8291 17.1997L24.8832 18.2538C24.9938 18.3644 25.1732 18.3644 25.2838 18.2538L26.3378 17.1997C26.4484 17.0891 26.4484 16.9097 26.3378 16.7991L25.2838 15.7451C25.1732 15.6345 24.9938 15.6345 24.8832 15.7451L23.8291 16.7991C23.7184 16.9097 23.7184 17.0891 23.8291 17.1997Z" fill="#CDCFFF"/>
<path d="M7.66163 17.1997L8.71568 18.2538C8.8263 18.3644 9.00568 18.3644 9.1163 18.2538L10.1703 17.1997C10.281 17.0891 10.281 16.9097 10.1703 16.7991L9.1163 15.7451C9.00568 15.6345 8.8263 15.6345 8.71568 15.7451L7.66163 16.7991C7.55094 16.9097 7.55094 17.0891 7.66163 17.1997Z" fill="#CDCFFF"/>
<path d="M17.4004 23.2284C17.1792 23.4495 16.8204 23.4497 16.5991 23.2284L13.1582 19.7876C13.0476 19.6769 12.8682 19.6769 12.7576 19.7876L11.7036 20.8416C11.593 20.9522 11.593 21.1316 11.7036 21.2422L16.7993 26.3381C16.9099 26.4487 17.0893 26.4487 17.1999 26.3381L22.2958 21.2422C22.4064 21.1316 22.4064 20.9522 22.2958 20.8416L21.2417 19.7876C21.131 19.6769 20.9517 19.6769 20.841 19.7876L17.4004 23.2284Z" fill="#CDCFFF"/>
<path d="M29.0183 4.98143C22.3776 -1.65929 11.6101 -1.66567 4.96859 4.99346C-1.65499 11.6346 -1.66165 22.3754 4.98134 29.0184C11.6235 35.6606 22.3856 35.6643 29.0282 29.007C35.6552 22.3654 35.6613 11.6245 29.0183 4.98143ZM16.9998 31.0218C9.26808 31.0218 2.9779 24.7316 2.9779 16.9999C2.9779 9.26824 9.26808 2.97799 16.9998 2.97799C24.416 2.97799 30.5198 8.74355 30.9924 16.0862C31.5143 24.3106 24.9893 31.0218 16.9998 31.0218Z" fill="#CDCFFF"/>
<path d="M16.9997 4.11084C9.89275 4.11084 4.11084 9.89275 4.11084 16.9997C4.11084 24.1066 9.89275 29.8885 16.9997 29.8885C24.4061 29.8885 30.338 23.6661 29.8614 16.1582C29.4267 9.40291 23.7771 4.11084 16.9997 4.11084ZM10.3014 12.5573L16.5991 6.25973C16.8204 6.03843 17.179 6.0385 17.4003 6.25973L23.698 12.5573C23.9191 12.7785 23.9191 13.1373 23.698 13.3586L21.4421 15.6144C21.2208 15.8357 20.8621 15.8356 20.6408 15.6144L17.2 12.1736C17.0894 12.063 16.91 12.063 16.7994 12.1736L13.3585 15.6144C13.1373 15.8356 12.7786 15.8357 12.5573 15.6144L10.3015 13.3586C10.0801 13.1373 10.0801 12.7786 10.3014 12.5573ZM19.6561 17.4003L17.4003 19.6561C17.179 19.8773 16.8204 19.8774 16.5991 19.6561L14.3432 17.4003C14.1219 17.179 14.1219 16.8203 14.3432 16.599L16.5991 14.3432C16.8204 14.1219 17.179 14.122 17.4003 14.3432L19.6561 16.599C19.8773 16.8204 19.8773 17.179 19.6561 17.4003ZM8.51549 19.6562L6.25966 17.4004C6.03836 17.1791 6.03836 16.8204 6.25966 16.5991L8.51549 14.3433C8.73673 14.122 9.09542 14.122 9.31665 14.3433L11.5725 16.5991C11.7938 16.8204 11.7938 17.1791 11.5725 17.4004L9.31665 19.6562C9.09549 19.8774 8.73673 19.8774 8.51549 19.6562ZM23.698 21.4421L17.4003 27.7397C17.179 27.9608 16.8203 27.961 16.5991 27.7397L10.3014 21.4421C10.0801 21.2208 10.0801 20.8621 10.3014 20.6408L12.5573 18.385C12.7785 18.1637 13.1372 18.1637 13.3584 18.385L16.7993 21.8258C16.9099 21.9364 17.0893 21.9364 17.1999 21.8258L20.6408 18.385C20.862 18.1638 21.2206 18.1637 21.442 18.385L23.6979 20.6408C23.919 20.862 23.9191 21.2208 23.698 21.4421ZM27.7397 17.4003L25.4838 19.6561C25.2625 19.8773 24.9039 19.8774 24.6826 19.6561L22.4268 17.4003C22.2056 17.179 22.2056 16.8203 22.4268 16.599L24.6826 14.3432C24.9039 14.1219 25.2625 14.1219 25.4838 14.3432L27.7397 16.599C27.9609 16.8204 27.9609 17.179 27.7397 17.4003Z" fill="#CDCFFF"/>
<path d="M16.599 10.7717C16.82 10.5506 17.1789 10.5505 17.4002 10.7717L20.841 14.2126C20.9517 14.3232 21.131 14.3232 21.2417 14.2126L22.2958 13.1585C22.4064 13.0479 22.4064 12.8685 22.2958 12.7579L17.1999 7.66206C17.0893 7.55145 16.9099 7.55145 16.7993 7.66206L11.7036 12.7579C11.593 12.8685 11.593 13.0479 11.7036 13.1585L12.7576 14.2126C12.8682 14.3232 13.0476 14.3232 13.1582 14.2126L16.599 10.7717Z" fill="#CDCFFF"/>
</g>
</svg>
