<svg width="52" height="44" viewBox="0 0 52 44" fill="none" xmlns="http://www.w3.org/2000/svg">
<path opacity="0.22" d="M12.9817 0.917969H39.0183L52 22.4529L39.0183 43.918H12.9817L0 22.4529L12.9817 0.917969Z" fill="url(#paint0_linear_0_3923)"/>
<g clip-path="url(#clip0_0_3923)">
<path d="M32.5592 23.595L25.323 31.9179C29.8264 31.9179 33.4944 28.3412 33.6414 23.8735C33.6464 23.7209 33.5224 23.595 33.3697 23.595H32.5592Z" fill="#0761E1"/>
<path d="M25.0442 15.2766C21.6962 15.3868 18.8489 17.4746 17.632 20.4093V23.595H25.3229V15.5483C25.3229 15.3956 25.1969 15.2716 25.0442 15.2766Z" fill="url(#paint1_linear_0_3923)"/>
<path d="M17.632 20.4093C17.2251 21.3907 17 22.4665 17 23.595C17 25.8933 17.9316 27.9741 19.4377 29.4802H25.3229V23.595L17.632 20.4093Z" fill="#3B88F5"/>
<path d="M25.323 23.595L19.4378 29.4802C20.944 30.9864 23.0247 31.9179 25.323 31.9179C29.3194 31.9179 32.5592 28.1916 32.5592 23.595H25.323V23.595Z" fill="#3B88F5"/>
<path d="M26.8242 13.9181C26.8155 13.9178 26.8069 13.9181 26.7983 13.9186L33.9131 22.3724H34.7281C34.8809 22.3724 35.0048 22.2465 34.9998 22.0938C34.8558 17.6436 31.2744 14.0621 26.8242 13.9181Z" fill="url(#paint2_linear_0_3923)"/>
<path d="M26.7984 13.9186C26.795 13.9185 26.7917 13.9182 26.7884 13.9181C26.6554 13.9132 26.5456 14.0371 26.5456 14.1898C26.5456 14.0458 26.6576 13.9275 26.7984 13.9186Z" fill="url(#paint3_linear_0_3923)"/>
<path d="M26.7984 13.9186C26.6576 13.9275 26.5456 14.0457 26.5456 14.1898V22.1007C26.5456 22.2507 26.6672 22.3724 26.8173 22.3724H33.9131V22.0938C33.7877 17.6474 30.6719 14.0684 26.7984 13.9186Z" fill="url(#paint4_linear_0_3923)"/>
</g>
<defs>
<linearGradient id="paint0_linear_0_3923" x1="-3.64229" y1="24.3646" x2="-3.25562" y2="-26.0228" gradientUnits="userSpaceOnUse">
<stop offset="0.0626893" stop-color="#4E9CDB"/>
<stop offset="0.709088" stop-color="#818AEF"/>
<stop offset="0.9999" stop-color="#7628DA"/>
</linearGradient>
<linearGradient id="paint1_linear_0_3923" x1="30.6129" y1="23.4138" x2="24.6891" y2="-4.02291" gradientUnits="userSpaceOnUse">
<stop offset="0.104232" stop-color="#93CAF7"/>
<stop offset="0.554846" stop-color="#6773FF"/>
<stop offset="0.9999" stop-color="#7628DA"/>
</linearGradient>
<linearGradient id="paint2_linear_0_3923" x1="40.6412" y1="22.1883" x2="34.8797" y2="-5.81115" gradientUnits="userSpaceOnUse">
<stop offset="0.104232" stop-color="#93CAF7"/>
<stop offset="0.554846" stop-color="#6773FF"/>
<stop offset="0.9999" stop-color="#7628DA"/>
</linearGradient>
<linearGradient id="paint3_linear_0_3923" x1="26.9722" y1="14.1839" x2="26.7797" y2="13.2868" gradientUnits="userSpaceOnUse">
<stop offset="0.104232" stop-color="#93CAF7"/>
<stop offset="0.554846" stop-color="#6773FF"/>
<stop offset="0.9999" stop-color="#7628DA"/>
</linearGradient>
<linearGradient id="paint4_linear_0_3923" x1="38.9806" y1="22.1883" x2="32.6295" y2="-5.53979" gradientUnits="userSpaceOnUse">
<stop offset="0.104232" stop-color="#DDF0FF"/>
<stop offset="0.848293" stop-color="#6773FF"/>
<stop offset="0.9999" stop-color="#7628DA"/>
</linearGradient>
<clipPath id="clip0_0_3923">
<rect width="18" height="18" fill="white" transform="translate(17 13.918)"/>
</clipPath>
</defs>
</svg>
