<svg width="52" height="44" viewBox="0 0 52 44" fill="none" xmlns="http://www.w3.org/2000/svg">
<path opacity="0.22" d="M12.9817 0.917969H39.0183L52 22.4529L39.0183 43.918H12.9817L0 22.4529L12.9817 0.917969Z" fill="url(#paint0_linear_7283_17805)"/>
<path d="M33.6781 20.1171L36.9143 28.1609L33.8289 29.4026L30.5928 21.3589L33.6781 20.1171ZM34.584 25.4114C34.6637 25.3795 34.7017 25.29 34.6698 25.2104C34.6379 25.1307 34.5472 25.0927 34.4688 25.1245L33.4906 25.518C33.4109 25.5499 33.3729 25.6406 33.4048 25.7191C33.4293 25.7791 33.4869 25.8159 33.5482 25.8159C33.5678 25.8159 33.5874 25.8122 33.6058 25.8049L34.584 25.4114Z" fill="url(#paint1_linear_7283_17805)"/>
<path d="M29.9712 19.8153L33.0574 18.5749L33.564 19.8353L30.4778 21.0757L29.9712 19.8153Z" fill="url(#paint2_linear_7283_17805)"/>
<path d="M29.04 17.5008L32.1262 16.2603L32.941 18.2875L29.8548 19.5279L29.04 17.5008Z" fill="url(#paint3_linear_7283_17805)"/>
<path d="M28.683 17.4105V17.4914H25.3574V15.3867H28.683V17.4105Z" fill="url(#paint4_linear_7283_17805)"/>
<path d="M28.683 17.8015V19.1597H25.3574V18.0859V17.8015H28.683Z" fill="url(#paint5_linear_7283_17805)"/>
<path d="M27.0194 21.9926C27.3283 21.9926 27.5808 22.2438 27.5808 22.554C27.5808 22.8629 27.3296 23.1154 27.0194 23.1154C26.7093 23.1154 26.458 22.8641 26.458 22.554C26.4592 22.2438 26.7105 21.9926 27.0194 21.9926Z" fill="url(#paint6_linear_7283_17805)"/>
<path d="M28.683 19.4698V29.4491H25.3574V19.4698H28.683ZM27.8728 25.4898C27.8728 25.404 27.8041 25.3353 27.7183 25.3353H26.3221C26.2363 25.3353 26.1677 25.404 26.1677 25.4898C26.1677 25.5756 26.2363 25.6442 26.3221 25.6442H27.7171C27.8029 25.6442 27.8728 25.5756 27.8728 25.4898ZM27.8728 27.0809C27.8728 26.9951 27.8041 26.9264 27.7183 26.9264H26.3221C26.2363 26.9264 26.1677 26.9963 26.1677 27.0809C26.1677 27.1667 26.2363 27.2353 26.3221 27.2353H27.7171C27.8029 27.2353 27.8728 27.1667 27.8728 27.0809ZM27.8899 22.5528C27.8899 22.0722 27.5001 21.6824 27.0196 21.6824C26.5391 21.6824 26.1493 22.0722 26.1493 22.5528C26.1493 23.032 26.5403 23.4231 27.0196 23.4231C27.4989 23.4231 27.8899 23.0333 27.8899 22.5528Z" fill="url(#paint7_linear_7283_17805)"/>
<path d="M22.8423 19.9443H23.9283V23.3336H22.8423V19.9443Z" fill="url(#paint8_linear_7283_17805)"/>
<path d="M25.0473 19.3142V29.4479H21.7217V20.6233V18.9562V18.2404H25.0473V19.3142ZM24.237 23.488V19.7886C24.237 19.7027 24.1684 19.6341 24.0826 19.6341H22.6864C22.6006 19.6341 22.5319 19.7027 22.5319 19.7886V23.488C22.5319 23.5738 22.6006 23.6425 22.6864 23.6425H24.0814C24.1684 23.6425 24.237 23.5738 24.237 23.488ZM24.237 25.7509C24.237 25.6651 24.1684 25.5964 24.0826 25.5964H22.6864C22.6006 25.5964 22.5319 25.6651 22.5319 25.7509C22.5319 25.8367 22.6006 25.9053 22.6864 25.9053H24.0814C24.1684 25.9053 24.237 25.8355 24.237 25.7509ZM24.237 27.3407C24.237 27.2549 24.1684 27.1863 24.0826 27.1863H22.6864C22.6006 27.1863 22.5319 27.2562 22.5319 27.3407C22.5319 27.4266 22.6006 27.4952 22.6864 27.4952H24.0814C24.1684 27.4964 24.237 27.4266 24.237 27.3407Z" fill="url(#paint9_linear_7283_17805)"/>
<path d="M21.4116 18.086V18.8006H18.0859V16.6162H21.4116V18.086Z" fill="url(#paint10_linear_7283_17805)"/>
<path d="M18.0859 19.1107H21.4116V20.4689H18.0859V19.1107Z" fill="url(#paint11_linear_7283_17805)"/>
<path d="M21.4116 20.779V29.4491H18.0859V20.779H21.4116ZM20.6013 25.8734C20.6013 25.7876 20.5326 25.719 20.4468 25.719H19.0506C18.9648 25.719 18.8962 25.7889 18.8962 25.8734C18.8962 25.9593 18.9648 26.0279 19.0506 26.0279H20.4456C20.5326 26.0291 20.6013 25.9593 20.6013 25.8734Z" fill="url(#paint12_linear_7283_17805)"/>
<defs>
<linearGradient id="paint0_linear_7283_17805" x1="-3.64229" y1="24.3646" x2="-3.25562" y2="-26.0228" gradientUnits="userSpaceOnUse">
<stop offset="0.0626893" stop-color="#4E9CDB"/>
<stop offset="0.709088" stop-color="#818AEF"/>
<stop offset="0.9999" stop-color="#7628DA"/>
</linearGradient>
<linearGradient id="paint1_linear_7283_17805" x1="36.4986" y1="24.7596" x2="31.1084" y2="24.7596" gradientUnits="userSpaceOnUse">
<stop stop-color="#7A6EEE"/>
<stop offset="1" stop-color="#A728DA"/>
</linearGradient>
<linearGradient id="paint2_linear_7283_17805" x1="33.1077" y1="19.2866" x2="30.4762" y2="20.3443" gradientUnits="userSpaceOnUse">
<stop stop-color="#7A6EEE"/>
<stop offset="1" stop-color="#A728DA"/>
</linearGradient>
<linearGradient id="paint3_linear_7283_17805" x1="32.3306" y1="17.3554" x2="29.6991" y2="18.4131" gradientUnits="userSpaceOnUse">
<stop stop-color="#7A6EEE"/>
<stop offset="1" stop-color="#A728DA"/>
</linearGradient>
<linearGradient id="paint4_linear_7283_17805" x1="28.4644" y1="16.439" x2="25.6287" y2="16.439" gradientUnits="userSpaceOnUse">
<stop stop-color="#7A6EEE"/>
<stop offset="1" stop-color="#A728DA"/>
</linearGradient>
<linearGradient id="paint5_linear_7283_17805" x1="28.4644" y1="18.4806" x2="25.6287" y2="18.4806" gradientUnits="userSpaceOnUse">
<stop stop-color="#7A6EEE"/>
<stop offset="1" stop-color="#A728DA"/>
</linearGradient>
<linearGradient id="paint6_linear_7283_17805" x1="27.507" y1="22.5539" x2="26.5496" y2="22.5539" gradientUnits="userSpaceOnUse">
<stop stop-color="#7A6EEE"/>
<stop offset="1" stop-color="#A728DA"/>
</linearGradient>
<linearGradient id="paint7_linear_7283_17805" x1="28.4644" y1="24.4592" x2="25.6287" y2="24.4592" gradientUnits="userSpaceOnUse">
<stop stop-color="#7A6EEE"/>
<stop offset="1" stop-color="#A728DA"/>
</linearGradient>
<linearGradient id="paint8_linear_7283_17805" x1="23.8569" y1="21.6388" x2="22.9309" y2="21.6388" gradientUnits="userSpaceOnUse">
<stop stop-color="#7A6EEE"/>
<stop offset="1" stop-color="#A728DA"/>
</linearGradient>
<linearGradient id="paint9_linear_7283_17805" x1="24.8286" y1="23.8438" x2="21.993" y2="23.8438" gradientUnits="userSpaceOnUse">
<stop stop-color="#7A6EEE"/>
<stop offset="1" stop-color="#A728DA"/>
</linearGradient>
<linearGradient id="paint10_linear_7283_17805" x1="21.1929" y1="17.7083" x2="18.3572" y2="17.7083" gradientUnits="userSpaceOnUse">
<stop stop-color="#7A6EEE"/>
<stop offset="1" stop-color="#A728DA"/>
</linearGradient>
<linearGradient id="paint11_linear_7283_17805" x1="21.1929" y1="19.7898" x2="18.3572" y2="19.7898" gradientUnits="userSpaceOnUse">
<stop stop-color="#7A6EEE"/>
<stop offset="1" stop-color="#A728DA"/>
</linearGradient>
<linearGradient id="paint12_linear_7283_17805" x1="21.1929" y1="25.1138" x2="18.3572" y2="25.1138" gradientUnits="userSpaceOnUse">
<stop stop-color="#7A6EEE"/>
<stop offset="1" stop-color="#A728DA"/>
</linearGradient>
</defs>
</svg>
