<svg width="52" height="44" viewBox="0 0 52 44" fill="none" xmlns="http://www.w3.org/2000/svg">
<path opacity="0.22" d="M12.9817 0.917969H39.0183L52 22.4529L39.0183 43.918H12.9817L0 22.4529L12.9817 0.917969Z" fill="url(#paint0_linear_0_3954)"/>
<g clip-path="url(#clip0_0_3954)">
<path d="M26 13.918C21.3058 13.918 17.5 17.7237 17.5 22.418C17.5 27.1122 21.3058 30.918 26 30.918C30.6942 30.918 34.5 27.1122 34.5 22.418C34.5 17.7237 30.6942 13.918 26 13.918ZM28.4416 25.769C28.0708 26.2202 27.5881 26.5246 27.0249 26.6785C26.78 26.7449 26.6681 26.8743 26.6821 27.1297C26.6926 27.3815 26.6821 27.6299 26.6786 27.8818C26.6786 28.1056 26.5632 28.2246 26.3428 28.2316C26.1994 28.235 26.056 28.2385 25.9126 28.2385C25.7866 28.2385 25.6607 28.2385 25.5348 28.235C25.2969 28.2315 25.185 28.0951 25.185 27.8643C25.1815 27.6824 25.1815 27.497 25.1815 27.3151C25.178 26.9093 25.164 26.8953 24.7757 26.8324C24.279 26.7519 23.7893 26.64 23.3346 26.4196C22.9778 26.2447 22.9393 26.1573 23.0407 25.7795C23.1177 25.4997 23.1947 25.2198 23.2821 24.9435C23.3451 24.7406 23.4045 24.6497 23.513 24.6497C23.5759 24.6497 23.6564 24.6811 23.7648 24.7371C24.2685 24.9995 24.8037 25.1464 25.3669 25.2163C25.4613 25.2268 25.5558 25.2338 25.6502 25.2338C25.9126 25.2338 26.1679 25.1848 26.4163 25.0764C27.0424 24.8036 27.1403 24.0795 26.6121 23.6457C26.4337 23.4988 26.2274 23.3904 26.014 23.296C25.4648 23.0546 24.8947 22.8727 24.377 22.5614C23.5374 22.0577 23.0058 21.3686 23.0687 20.3472C23.1387 19.1929 23.7928 18.4723 24.8527 18.0875C25.2899 17.9301 25.2934 17.9336 25.2934 17.4789C25.2934 17.325 25.2899 17.1711 25.2969 17.0136C25.3074 16.6708 25.3634 16.6114 25.7062 16.6009C25.7447 16.6009 25.7866 16.6009 25.8251 16.6009C25.8916 16.6009 25.958 16.6009 26.0245 16.6009C26.0525 16.6009 26.0805 16.6009 26.1049 16.6009C26.7556 16.6009 26.7556 16.6289 26.7591 17.332C26.7626 17.8497 26.7626 17.8497 27.2767 17.9301C27.672 17.9931 28.0463 18.1085 28.4101 18.2694C28.6095 18.3569 28.6864 18.4968 28.6235 18.7102C28.5325 19.025 28.4451 19.3433 28.3471 19.6546C28.2842 19.8435 28.2247 19.9309 28.1128 19.9309C28.0498 19.9309 27.9728 19.9064 27.8749 19.8575C27.3712 19.6126 26.843 19.4937 26.2903 19.4937C26.2204 19.4937 26.1469 19.4972 26.077 19.5007C25.9126 19.5112 25.7516 19.5322 25.5977 19.5986C25.0521 19.8365 24.9646 20.4381 25.4298 20.8089C25.6642 20.9978 25.9335 21.1307 26.2099 21.2462C26.6926 21.4455 27.1753 21.6379 27.6335 21.8898C29.0747 22.6943 29.4665 24.5237 28.4416 25.769Z" fill="url(#paint1_linear_0_3954)"/>
</g>
<defs>
<linearGradient id="paint0_linear_0_3954" x1="-3.64229" y1="24.3646" x2="-3.25562" y2="-26.0228" gradientUnits="userSpaceOnUse">
<stop offset="0.0626893" stop-color="#4E9CDB"/>
<stop offset="0.709088" stop-color="#818AEF"/>
<stop offset="0.9999" stop-color="#7628DA"/>
</linearGradient>
<linearGradient id="paint1_linear_0_3954" x1="33.3822" y1="22.4174" x2="18.8867" y2="22.4174" gradientUnits="userSpaceOnUse">
<stop stop-color="#7A6EEE"/>
<stop offset="1" stop-color="#A728DA"/>
</linearGradient>
<clipPath id="clip0_0_3954">
<rect width="18" height="18" fill="white" transform="translate(17 12.918)"/>
</clipPath>
</defs>
</svg>
