<svg width="42" height="42" viewBox="0 0 42 42" fill="none" xmlns="http://www.w3.org/2000/svg">
<g clip-path="url(#clip0_7283_16984)">
<path d="M4.08655 23.4955C7.30584 18.8614 9.19951 15.876 10.5802 13.6697C5.27427 14.139 0.188477 20.7411 0.188477 20.7411L3.69064 24.2431C3.79226 23.9842 3.92201 23.7327 4.08655 23.4955Z" fill="url(#paint0_linear_7283_16984)"/>
<path d="M17.7603 38.3132L21.2601 41.8129C21.2601 41.8129 27.862 36.7275 28.3314 31.4218C26.1258 32.8019 23.1413 34.6948 18.5057 37.9149C18.2712 38.0777 18.0212 38.2106 17.7603 38.3132Z" fill="url(#paint1_linear_7283_16984)"/>
<path d="M12.4381 36.5036C11.8373 36.7464 11.2468 37.0044 10.6312 37.2101C8.98702 37.7597 7.29361 38.131 5.5767 38.3679C4.85703 38.4673 4.1307 38.5515 3.40315 38.6067C3.41008 38.5169 3.41674 38.4269 3.42435 38.3372C3.57448 36.5879 3.84063 34.8476 4.27064 33.1441C4.47783 32.322 4.74223 31.5229 5.02604 30.7248C5.20253 30.2286 5.42277 29.7538 5.6449 29.2789L5.25987 28.8942C4.40352 29.4694 3.65871 30.1963 3.02667 31.0187C2.09098 32.2364 1.38965 33.616 0.899317 35.0697C0.372573 36.6307 0.058456 38.2839 0.00954501 39.9319C0.00261596 40.1634 -0.0132801 40.3999 0.0225879 40.6297C0.0687816 40.9264 0.199075 41.2072 0.394855 41.4348C0.588597 41.6599 0.843613 41.8299 1.12621 41.9211C1.36343 41.9976 1.602 41.9989 1.84805 41.997C3.34419 41.9845 4.86355 41.7246 6.29569 41.2991C8.91501 40.5208 11.5593 39.0568 13.1093 36.7433L12.7345 36.3689C12.6363 36.415 12.5378 36.4603 12.4381 36.5036Z" fill="url(#paint2_linear_7283_16984)"/>
<path d="M41.5748 0.427831C41.5748 0.427831 41.5745 0.427695 41.5743 0.427424C41.3017 0.155017 40.9323 0.00244141 40.5478 0.00244141C40.5383 0.00244141 40.5287 0.00257727 40.5191 0.00271313C35.8441 0.0944212 24.3096 0.968841 18.1841 7.09467C15.4034 9.8754 14.4996 11.3229 12.5187 14.495C11.0921 16.7789 9.13908 19.9072 5.56967 25.0447C5.16873 25.6222 5.23843 26.4038 5.73556 26.9006L15.1004 36.2656C15.3813 36.5467 15.7535 36.6913 16.1281 36.6913C16.416 36.6913 16.7052 36.6059 16.9563 36.4316C22.0957 32.8614 25.2228 30.9088 27.5058 29.4827C30.6777 27.502 32.1255 26.5979 34.9067 23.8169C41.0432 17.6802 41.9115 6.15341 41.9995 1.48227C42.0073 1.08786 41.8537 0.707167 41.5748 0.427831ZM30.7306 18.0979C28.8452 19.9831 25.7888 19.9831 23.9034 18.0979C22.0178 16.2125 22.018 13.1562 23.9037 11.271C25.7888 9.38561 28.8452 9.38534 30.7306 11.2706C32.6154 13.1558 32.6157 16.2128 30.7306 18.0979Z" fill="url(#paint3_linear_7283_16984)"/>
</g>
<defs>
<linearGradient id="paint0_linear_7283_16984" x1="11.308" y1="19.4275" x2="5.93071" y2="-31.1553" gradientUnits="userSpaceOnUse">
<stop offset="0.0416667" stop-color="#4E9CDB"/>
<stop offset="0.46875" stop-color="#5761D7"/>
<stop offset="0.9999" stop-color="#7628DA"/>
</linearGradient>
<linearGradient id="paint1_linear_7283_16984" x1="29.0719" y1="37.0803" x2="23.9628" y2="-12.6673" gradientUnits="userSpaceOnUse">
<stop offset="0.0416667" stop-color="#4E9CDB"/>
<stop offset="0.46875" stop-color="#5761D7"/>
<stop offset="0.9999" stop-color="#7628DA"/>
</linearGradient>
<linearGradient id="paint2_linear_7283_16984" x1="14.0275" y1="36.0296" x2="7.47859" y2="-26.6801" gradientUnits="userSpaceOnUse">
<stop offset="0.0416667" stop-color="#4E9CDB"/>
<stop offset="0.46875" stop-color="#5761D7"/>
<stop offset="0.9999" stop-color="#7628DA"/>
</linearGradient>
<linearGradient id="paint3_linear_7283_16984" x1="44.5697" y1="19.9815" x2="26.2252" y2="-155.603" gradientUnits="userSpaceOnUse">
<stop offset="0.0416667" stop-color="#4E9CDB"/>
<stop offset="0.46875" stop-color="#5761D7"/>
<stop offset="0.9999" stop-color="#7628DA"/>
</linearGradient>
<clipPath id="clip0_7283_16984">
<rect width="42" height="42" fill="white"/>
</clipPath>
</defs>
</svg>
