<svg width="144" height="138" viewBox="0 0 144 138" fill="none" xmlns="http://www.w3.org/2000/svg">
<path opacity="0.11" d="M107.454 13.7817H35.7507L0 75.9919L35.7507 138H107.454L143.205 75.9919L107.454 13.7817Z" fill="url(#paint0_linear_7283_15646)" fill-opacity="0.6"/>
<path d="M43.4255 21.134C43.4255 27.3137 38.4149 32.1573 32.4022 32.1573C26.2225 32.1573 21.3789 27.1467 21.3789 21.134C21.3789 14.9543 26.3895 10.1107 32.4022 10.1107C38.4149 9.94373 43.4255 14.9543 43.4255 21.134Z" fill="url(#paint1_linear_7283_15646)"/>
<path d="M12.1905 1.83789C12.1905 2.86784 11.3554 3.6751 10.3533 3.6751C9.32337 3.6751 8.51611 2.84 8.51611 1.83789C8.51611 0.807936 9.35121 0.000676295 10.3533 0.000676295C11.3554 -0.0271603 12.1905 0.807936 12.1905 1.83789Z" fill="url(#paint2_linear_7283_15646)"/>
<path d="M73.5846 83.6471H70.5057V86.706H73.5846C74.4324 86.706 75.1239 86.0205 75.1239 85.1766C75.1241 84.3326 74.4326 83.6471 73.5846 83.6471ZM73.5846 89.7647H70.5057V92.8236H73.5846C74.4324 92.8236 75.1239 92.1381 75.1239 91.2942C75.1239 90.4503 74.4326 89.7647 73.5846 89.7647ZM72.0452 74.4706C64.3936 74.4706 58.1906 80.6333 58.1906 88.2353C58.1906 95.8373 64.3936 102 72.0452 102C79.6969 102 85.8999 95.8373 85.8999 88.2353C85.8999 80.6332 79.6969 74.4706 72.0452 74.4706ZM78.2028 91.294C78.2028 93.8241 76.1312 95.8823 73.5846 95.8823V97.4116C73.5846 98.2569 72.896 98.941 72.0452 98.941C71.1945 98.941 70.5059 98.2569 70.5059 97.4116V95.8823C70.2258 95.8823 67.686 95.8823 67.427 95.8823C66.5761 95.8823 65.8877 95.1982 65.8877 94.3527C65.8877 93.5075 66.5763 92.8234 67.427 92.8234V83.6469C66.5761 83.6469 65.8877 82.9628 65.8877 82.1176C65.8877 81.2723 66.5763 80.5882 67.427 80.5882H70.5059V79.0589C70.5059 78.2134 71.1945 77.5295 72.0452 77.5295C72.896 77.5295 73.5846 78.2136 73.5846 79.0589V80.5882C76.1312 80.5882 78.2028 82.6464 78.2028 85.1765C78.2028 86.3504 77.7579 87.4228 77.0243 88.2353C77.7579 89.0479 78.2028 90.1202 78.2028 91.294ZM92.0394 62.7565C92.4958 56.2417 87.0034 50 79.7423 50C75.5933 50 71.7747 52.0731 69.5198 55.4232C67.6196 53.9028 65.2653 53.0589 62.809 53.0589C57.2137 53.0589 52.5984 57.3201 52.0812 62.7477C48.4192 64.0128 45.8755 67.4794 45.8755 71.4119C45.8755 76.4721 50.0187 80.5884 55.1119 80.5884H56.9814C59.7904 75.1494 65.482 71.4118 72.0452 71.4118C78.6085 71.4118 84.3001 75.1494 87.1091 80.5882H88.9786C94.0718 80.5882 98.215 76.472 98.215 71.4118C98.2152 67.4866 95.6895 64.044 92.0394 62.7565Z" fill="#5994F8"/>
<defs>
<linearGradient id="paint0_linear_7283_15646" x1="153.235" y1="81.5143" x2="122.079" y2="-16.8445" gradientUnits="userSpaceOnUse">
<stop offset="0.0416667" stop-color="#4E9CDB"/>
<stop offset="0.46875" stop-color="#5761D7"/>
<stop offset="0.9999" stop-color="#7628DA"/>
</linearGradient>
<linearGradient id="paint1_linear_7283_15646" x1="24.4643" y1="13.2036" x2="40.1682" y2="28.9076" gradientUnits="userSpaceOnUse">
<stop stop-color="#7DC6FD"/>
<stop offset="0.303" stop-color="#548EF7"/>
<stop offset="1" stop-color="#A728DA"/>
</linearGradient>
<linearGradient id="paint2_linear_7283_15646" x1="9.03034" y1="0.516154" x2="11.6477" y2="3.13349" gradientUnits="userSpaceOnUse">
<stop stop-color="#7DC6FD"/>
<stop offset="0.303" stop-color="#548EF7"/>
<stop offset="1" stop-color="#A728DA"/>
</linearGradient>
</defs>
</svg>
