<svg width="144" height="138" viewBox="0 0 144 138" fill="none" xmlns="http://www.w3.org/2000/svg">
<path opacity="0.11" d="M35.7506 13.7817H107.454L143.205 75.9919L107.454 138H35.7506L0 75.9919L35.7506 13.7817Z" fill="url(#paint0_linear_0_2094)" fill-opacity="0.6"/>
<path d="M99.7791 21.134C99.7791 27.3137 104.79 32.1573 110.802 32.1573C116.982 32.1573 121.826 27.1467 121.826 21.134C121.826 14.9543 116.815 10.1107 110.802 10.1107C104.79 9.94373 99.7791 14.9543 99.7791 21.134Z" fill="url(#paint1_linear_0_2094)"/>
<path d="M131.014 1.83789C131.014 2.86784 131.849 3.6751 132.851 3.6751C133.881 3.6751 134.688 2.84 134.688 1.83789C134.688 0.807936 133.853 0.000676295 132.851 0.000676295C131.849 -0.0271603 131.014 0.807936 131.014 1.83789Z" fill="url(#paint2_linear_0_2094)"/>
<path d="M65.0911 79.8236C65.0911 84.5919 68.9709 88.4707 73.7405 88.4707C78.51 88.4707 82.3898 84.5919 82.3898 79.8236V74.0589H65.0911V79.8236ZM72.2989 78.3825C72.2989 77.5858 72.9436 76.9413 73.7405 76.9413C74.5373 76.9413 75.1821 77.586 75.1821 78.3825V84.1473C75.1821 84.9438 74.5373 85.5884 73.7405 85.5884C72.9436 85.5884 72.2989 84.9438 72.2989 84.1473V78.3825ZM79.5066 68.3799C79.5066 65.1542 76.8825 62.5293 73.6559 62.5293C70.5222 62.5293 67.9742 65.0766 67.9742 68.2081V71.1764H79.5066V68.3799ZM91.039 56.7646C85.4981 56.7646 82.9387 55.4711 76.7558 52.3468L74.3851 51.152C73.9796 50.9493 73.501 50.9493 73.0955 51.152L70.7248 52.3468C64.5419 55.4713 61.9827 56.7646 56.4416 56.7646C55.6448 56.7646 55 57.4093 55 58.2057V78.3823C55 96.6857 73.3178 99.9494 73.5036 99.9804C73.5824 99.993 73.6613 100 73.7401 100C73.819 100 73.8979 99.993 73.9767 99.9804C74.1625 99.9494 92.4803 96.6857 92.4803 78.3823V58.2059C92.4806 57.4093 91.8358 56.7646 91.039 56.7646ZM85.2729 79.8236C85.2729 86.1808 80.1008 91.3531 73.7405 91.3531C67.3802 91.3531 62.2081 86.181 62.2081 79.8236V72.6176C62.2081 71.821 62.8528 71.1765 63.6497 71.1765H65.0913V68.2083C65.0913 63.4879 68.9346 59.647 73.6561 59.647C78.4706 59.647 82.3898 63.5653 82.3898 68.3799V71.1764H83.8314C84.6282 71.1764 85.273 71.821 85.273 72.6175V79.8236H85.2729Z" fill="#006CFF"/>
<defs>
<linearGradient id="paint0_linear_0_2094" x1="-10.0306" y1="81.5143" x2="21.1254" y2="-16.8445" gradientUnits="userSpaceOnUse">
<stop offset="0.0416667" stop-color="#4E9CDB"/>
<stop offset="0.46875" stop-color="#5761D7"/>
<stop offset="0.9999" stop-color="#7628DA"/>
</linearGradient>
<linearGradient id="paint1_linear_0_2094" x1="118.74" y1="13.2036" x2="103.036" y2="28.9076" gradientUnits="userSpaceOnUse">
<stop stop-color="#7DC6FD"/>
<stop offset="0.303" stop-color="#548EF7"/>
<stop offset="1" stop-color="#A728DA"/>
</linearGradient>
<linearGradient id="paint2_linear_0_2094" x1="134.174" y1="0.516154" x2="131.557" y2="3.13349" gradientUnits="userSpaceOnUse">
<stop stop-color="#7DC6FD"/>
<stop offset="0.303" stop-color="#548EF7"/>
<stop offset="1" stop-color="#A728DA"/>
</linearGradient>
</defs>
</svg>
