<svg width="144" height="146" viewBox="0 0 144 146" fill="none" xmlns="http://www.w3.org/2000/svg">
<path opacity="0.11" d="M36.5461 21.7816H108.249L144 83.9918L108.249 146H36.5461L0.79541 83.9918L36.5461 21.7816Z" fill="url(#paint0_linear_0_1729)" fill-opacity="0.6"/>
<path d="M51 23.0273C51 29.207 56.0106 34.0506 62.0233 34.0506C68.203 34.0506 73.0466 29.04 73.0466 23.0273C73.0466 16.8476 68.036 12.0041 62.0233 12.0041C56.0106 11.837 51 16.8476 51 23.0273Z" fill="url(#paint1_linear_0_1729)"/>
<path d="M42 1.83789C42 2.86784 42.8351 3.6751 43.8372 3.6751C44.8672 3.6751 45.6744 2.84 45.6744 1.83789C45.6744 0.807936 44.8393 0.000676295 43.8372 0.000676295C42.8351 -0.0271603 42 0.807936 42 1.83789Z" fill="url(#paint2_linear_0_1729)"/>
<path d="M71.3927 65.0025C67.0147 64.9273 62.6085 66.5201 59.2149 69.799C52.4277 76.3567 52.2412 87.1957 58.799 93.9829C65.3567 100.77 76.1957 100.957 82.9829 94.3988C89.7701 87.8411 89.9566 77.0021 83.3988 70.2149C80.1199 66.8213 75.7708 65.0778 71.3927 65.0025ZM71.3473 67.6513C75.0469 67.715 78.7216 69.1882 81.4924 72.0559C87.0341 77.7915 86.8816 86.955 81.1461 92.4967C75.4105 98.0383 66.2427 97.8816 60.7011 92.1461C55.1594 86.4105 55.3204 77.2456 61.056 71.704C63.9237 68.9331 67.6477 67.5877 71.3473 67.6513ZM71.3217 69.0963C67.9972 69.0392 64.6519 70.2522 62.0666 72.7501C56.8961 77.746 56.75 85.9648 61.7458 91.1354C66.7416 96.306 74.9648 96.4478 80.1354 91.452C85.3059 86.4562 85.4435 78.2373 80.4476 73.0667C77.9497 70.4814 74.6462 69.1535 71.3217 69.0963ZM71.1443 73.5947C71.8356 73.6084 72.5222 73.883 73.0365 74.4152C73.8248 75.231 73.9874 76.4264 73.5432 77.4046L76.6193 80.2422C77.3164 79.814 78.1651 79.7426 78.9203 80.0051L80.2134 78.0974L81.4157 78.9135L80.1112 80.8427C80.9788 81.9129 80.9133 83.4999 79.9054 84.4737C78.8408 85.5024 77.1226 85.4687 76.0941 84.4042C75.279 83.5607 75.1391 82.3135 75.6412 81.3182L72.6021 78.5148C72.0544 78.8833 71.4032 79.022 70.771 78.9463L68.6942 83.6888C68.7785 83.7569 68.8656 83.8193 68.9427 83.899C69.9711 84.9635 69.9419 86.686 68.8773 87.7145C67.8128 88.7432 66.0945 88.7095 65.066 87.645C64.4859 87.0447 64.2547 86.239 64.3435 85.4647L61.6237 84.2567L62.2142 82.9323L64.8928 84.1204C64.9685 84.0238 65.0406 83.9243 65.1313 83.8365C65.7431 83.2454 66.5696 83.0144 67.3585 83.1168L69.4281 78.3885C69.3365 78.316 69.243 78.2476 69.1598 78.1613C68.1313 77.0968 68.1606 75.3743 69.2251 74.3457C69.7574 73.8314 70.4529 73.5821 71.1443 73.5949L71.1443 73.5947ZM85.9226 93.2632C85.346 94.0285 84.7037 94.7588 83.9935 95.445C83.2819 96.1326 82.5272 96.7494 81.7408 97.3003L91.2273 107.118C92.3376 108.267 94.1889 108.297 95.3381 107.187C96.4874 106.077 96.518 104.227 95.4077 103.078L85.9226 93.2632Z" fill="#8356E7"/>
<defs>
<linearGradient id="paint0_linear_0_1729" x1="-9.23524" y1="89.5142" x2="21.9209" y2="-8.84463" gradientUnits="userSpaceOnUse">
<stop offset="0.0416667" stop-color="#4E9CDB"/>
<stop offset="0.46875" stop-color="#5761D7"/>
<stop offset="0.9999" stop-color="#7628DA"/>
</linearGradient>
<linearGradient id="paint1_linear_0_1729" x1="69.9612" y1="15.0969" x2="54.2572" y2="30.8009" gradientUnits="userSpaceOnUse">
<stop stop-color="#7DC6FD"/>
<stop offset="0.303" stop-color="#548EF7"/>
<stop offset="1" stop-color="#A728DA"/>
</linearGradient>
<linearGradient id="paint2_linear_0_1729" x1="45.1602" y1="0.516154" x2="42.5429" y2="3.13349" gradientUnits="userSpaceOnUse">
<stop stop-color="#7DC6FD"/>
<stop offset="0.303" stop-color="#548EF7"/>
<stop offset="1" stop-color="#A728DA"/>
</linearGradient>
</defs>
</svg>
