<svg width="81" height="81" viewBox="0 0 81 81" fill="none" xmlns="http://www.w3.org/2000/svg">
<g filter="url(#filter0_bd_0_4057)">
<circle cx="40.5" cy="36.5" r="23.5" fill="white" fill-opacity="0.08" shape-rendering="crispEdges"/>
</g>
<path d="M51.0351 32.0345C50.9284 31.1442 50.0894 30.2905 49.2115 30.1761C43.8585 29.511 38.4454 29.511 33.0941 30.1761C32.2155 30.2902 31.3765 31.1442 31.2698 32.0345C30.8919 35.2974 30.8919 38.4611 31.2698 41.7232C31.3765 42.6135 32.2155 43.468 33.0941 43.5816C38.4454 44.2468 43.8587 44.2468 49.2115 43.5816C50.0894 43.4682 50.9284 42.6135 51.0351 41.7232C51.4131 38.4614 51.4131 35.2974 51.0351 32.0345ZM39.458 40.2682V33.4906L44.5411 36.8795L39.458 40.2682Z" fill="#456AE7"/>
<defs>
<filter id="filter0_bd_0_4057" x="-13" y="-17" width="107" height="107" filterUnits="userSpaceOnUse" color-interpolation-filters="sRGB">
<feFlood flood-opacity="0" result="BackgroundImageFix"/>
<feGaussianBlur in="BackgroundImageFix" stdDeviation="15"/>
<feComposite in2="SourceAlpha" operator="in" result="effect1_backgroundBlur_0_4057"/>
<feColorMatrix in="SourceAlpha" type="matrix" values="0 0 0 0 0 0 0 0 0 0 0 0 0 0 0 0 0 0 127 0" result="hardAlpha"/>
<feOffset dy="4"/>
<feGaussianBlur stdDeviation="8.5"/>
<feComposite in2="hardAlpha" operator="out"/>
<feColorMatrix type="matrix" values="0 0 0 0 0 0 0 0 0 0 0 0 0 0 0 0 0 0 0.12 0"/>
<feBlend mode="normal" in2="effect1_backgroundBlur_0_4057" result="effect2_dropShadow_0_4057"/>
<feBlend mode="normal" in="SourceGraphic" in2="effect2_dropShadow_0_4057" result="shape"/>
</filter>
</defs>
</svg>
