<svg width="26" height="18" viewBox="0 0 26 18" fill="none" xmlns="http://www.w3.org/2000/svg">
<path d="M16.5878 10.0625L14.4437 12.2138C13.5743 13.0863 12.0445 13.1051 11.1562 12.2138L9.01206 10.0625L1.31126 17.7883C1.59791 17.9209 1.91396 18 2.24996 18H23.35C23.686 18 24.0019 17.921 24.2885 17.7884L16.5878 10.0625Z" fill="#456AE7"/>
<path d="M23.35 0H2.24998C1.91398 0 1.59793 0.0791001 1.31138 0.21165L9.54023 8.4678C9.54078 8.46835 9.54143 8.46845 9.54198 8.469C9.54253 8.46955 9.54263 8.4703 9.54263 8.4703L12.2183 11.1548C12.5025 11.439 13.0976 11.439 13.3818 11.1548L16.0569 8.47075C16.0569 8.47075 16.0575 8.46955 16.0581 8.469C16.0581 8.469 16.0593 8.46835 16.0598 8.4678L24.2885 0.2116C24.0019 0.0790001 23.686 0 23.35 0Z" fill="#456AE7"/>
<path d="M0.2393 1.26074C0.091 1.56064 0 1.89354 0 2.25014V15.7501C0 16.1067 0.0909 16.4396 0.23925 16.7395L7.9534 9.00039L0.2393 1.26074Z" fill="#456AE7"/>
<path d="M25.3607 1.2605L17.6466 9.00025L25.3607 16.7395C25.509 16.4396 25.6 16.1067 25.6 15.75V2.25C25.6 1.8933 25.509 1.5604 25.3607 1.2605Z" fill="#456AE7"/>
</svg>
