<svg width="181" height="173" viewBox="0 0 181 173" fill="none" xmlns="http://www.w3.org/2000/svg">
<g clip-path="url(#clip0_8040_2972)">
<path opacity="0.88" d="M86.116 150.619L81.1854 132.85L91.1687 132.522L87.9051 150.936L86.116 150.619Z" fill="url(#paint0_linear_8040_2972)" fill-opacity="0.8"/>
<path opacity="0.88" d="M100.339 151.596L94.8251 131.726L105.99 131.359L102.34 151.951L100.339 151.596Z" fill="url(#paint1_linear_8040_2972)" fill-opacity="0.8"/>
<path opacity="0.88" d="M92.4283 155.83L88.422 137.267L98.6658 136.849L94.2419 156.149L92.4283 155.83Z" fill="url(#paint2_linear_8040_2972)" fill-opacity="0.8"/>
<g opacity="0.3">
<path opacity="0.2" d="M90.7178 173C140.546 173 180.94 134.273 180.94 86.5003C180.94 38.7277 140.546 0.000488281 90.7178 0.000488281C40.8892 0.000488281 0.495117 38.7277 0.495117 86.5003C0.495117 134.273 40.8892 173 90.7178 173Z" fill="url(#paint3_linear_8040_2972)"/>
<path opacity="0.2" d="M90.7178 173C140.546 173 180.94 134.273 180.94 86.5003C180.94 38.7277 140.546 0.000488281 90.7178 0.000488281C40.8892 0.000488281 0.495117 38.7277 0.495117 86.5003C0.495117 134.273 40.8892 173 90.7178 173Z" fill="url(#paint4_linear_8040_2972)"/>
<path opacity="0.2" d="M90.7179 138.489C140.482 138.489 180.825 116.159 180.825 88.6149C180.825 61.0704 140.482 38.7411 90.7179 38.7411C40.9534 38.7411 0.611328 61.0704 0.611328 88.6149C0.611328 116.159 40.9534 138.489 90.7179 138.489Z" fill="url(#paint5_linear_8040_2972)"/>
<path opacity="0.2" d="M161.782 70.3575C151.216 107.985 110.923 146.727 71.6756 156.746C32.4281 166.765 9.08864 144.5 19.6553 106.872C30.2219 69.2443 70.5144 30.5031 109.762 20.4838C149.009 10.4645 172.349 32.7296 161.782 70.3575Z" fill="url(#paint6_linear_8040_2972)"/>
<path opacity="0.2" d="M109.762 156.857C70.5144 146.727 30.1058 108.097 19.6553 70.4688C9.08864 32.8409 32.4281 10.4645 71.6756 20.5951C110.923 30.7257 151.332 69.3556 161.782 106.984C172.233 144.612 149.009 166.877 109.762 156.857Z" fill="url(#paint7_linear_8040_2972)"/>
<path opacity="0.2" d="M90.718 172.777C119.448 172.777 142.738 134.099 142.738 86.3885C142.738 38.6774 119.448 0 90.718 0C61.988 0 38.6978 38.6774 38.6978 86.3885C38.6978 134.099 61.988 172.777 90.718 172.777Z" fill="url(#paint8_linear_8040_2972)"/>
</g>
<g filter="url(#filter0_d_8040_2972)">
<path fill-rule="evenodd" clip-rule="evenodd" d="M111.844 119.068C112.326 117.411 113.715 116.178 115.416 115.895L115.726 115.844C118.626 115.363 121.231 117.486 120.97 120.415C120.43 126.469 118.495 136.844 111.918 147.909C111.824 148.068 111.649 148.165 111.465 148.161V148.161C111.177 148.154 110.952 147.912 110.964 147.625L111.945 125.296C111.963 124.881 111.646 124.528 111.231 124.501V124.501C110.744 124.47 110.411 123.996 110.547 123.527L111.844 119.068Z" fill="url(#paint9_linear_8040_2972)"/>
</g>
<g filter="url(#filter1_d_8040_2972)">
<path fill-rule="evenodd" clip-rule="evenodd" d="M74.5416 118.603C74.1592 116.865 72.7848 115.518 71.0394 115.17L70.6726 115.097C67.7508 114.515 65.0417 116.58 65.2101 119.554C65.5544 125.638 67.1512 136.047 73.3289 147.291C73.4162 147.45 73.583 147.553 73.7642 147.557V147.557C74.0537 147.564 74.2912 147.329 74.2878 147.04L74.0288 124.702C74.0239 124.282 74.3569 123.936 74.7768 123.925V123.925C75.2593 123.912 75.6105 123.462 75.5068 122.991L74.5416 118.603Z" fill="url(#paint10_linear_8040_2972)"/>
</g>
<path fill-rule="evenodd" clip-rule="evenodd" d="M94.778 24.4424C83.8069 24.2353 66.1927 50.4405 67.1584 75.0448C68.15 99.6833 78.856 136.029 78.856 136.029L92.9196 136.412L106.99 136.521C106.99 136.521 118.902 100.559 120.711 75.995C122.469 51.3634 105.663 24.6073 94.778 24.4424Z" fill="url(#paint11_linear_8040_2972)"/>
<path d="M110.118 37.25C96.4426 31.0843 80.0566 35.4273 79.8684 35.4629L79.781 35.2066C79.9692 35.171 96.4493 30.8102 110.185 36.984L110.118 37.25Z" fill="#4B50DA"/>
<path fill-rule="evenodd" clip-rule="evenodd" d="M91.0933 25.2552L99.3006 25.7896C99.2665 25.8156 95.1607 22.7525 91.0933 25.2552Z" fill="#53345F"/>
<path fill-rule="evenodd" clip-rule="evenodd" d="M92.2116 24.8885C92.2116 24.8885 94.4012 24.5137 96.8612 24.8479C96.8612 24.8479 96.0206 20.9146 94.6066 20.753C93.1925 20.5915 92.2116 24.8885 92.2116 24.8885Z" fill="url(#paint12_linear_8040_2972)"/>
<path fill-rule="evenodd" clip-rule="evenodd" d="M72.7651 112.042C72.7651 112.042 96.6231 104.651 114.475 110.437C111.985 120.67 109.683 133.524 104.778 134.066C102.549 134.312 104.253 135.915 89.4793 135.556C74.7058 135.196 74.6721 124.095 72.7651 112.042Z" fill="url(#paint13_linear_8040_2972)"/>
<path fill-rule="evenodd" clip-rule="evenodd" d="M93.5964 40.5661C83.6757 41.1739 76.4346 52.8699 75.8031 63.1416C75.1716 73.4134 84.4987 79.8745 94.5342 79.7712C104.57 79.6679 113.009 72.8704 112.067 61.5905C111.157 51.4149 104.596 39.891 93.5964 40.5661Z" fill="url(#paint14_linear_8040_2972)"/>
<path fill-rule="evenodd" clip-rule="evenodd" d="M93.5969 39.4362C83.6762 40.044 76.435 51.7399 75.8035 62.0117C75.172 72.2835 84.4992 78.7446 94.5347 78.6412C104.57 78.5379 113.01 71.7405 112.067 60.4605C111.192 50.259 104.596 38.7611 93.5969 39.4362Z" fill="url(#paint15_linear_8040_2972)"/>
<path fill-rule="evenodd" clip-rule="evenodd" d="M94.1956 43.1231C85.3097 43.5353 80.7316 52.721 80.2216 60.7484C79.7117 68.7757 87.0337 73.8034 94.9285 73.7148C102.823 73.6262 109.44 68.3228 108.678 59.5421C108.023 51.5398 103.484 42.6738 94.1956 43.1231Z" fill="url(#paint16_linear_8040_2972)"/>
<path fill-rule="evenodd" clip-rule="evenodd" d="M103.277 70.968C100.942 72.6368 98.0366 73.5559 94.8855 73.5862C87.3589 73.6637 79.7354 68.3812 80.2224 60.7479C80.3847 58.2035 81.0174 55.5702 82.1056 53.1821C84.2658 48.5259 88.2822 44.8246 94.1711 44.4329C102.893 43.8762 107.32 52.4519 107.963 60.086C108.433 64.9467 106.463 68.6511 103.277 70.968Z" fill="url(#paint17_linear_8040_2972)"/>
<path d="M94.3053 79.7698L93.8271 108.366L94.084 108.37L94.5622 79.7741L94.3053 79.7698Z" fill="url(#paint18_linear_8040_2972)"/>
<path d="M72.8089 112.171L72.7215 111.915C100.005 104.499 114.379 110.241 114.525 110.291L114.432 110.523C114.252 110.498 99.9638 104.799 72.8089 112.171Z" fill="url(#paint19_linear_8040_2972)"/>
<path d="M70.8416 102.585L70.7201 102.354C70.7883 102.302 79.2721 96.9776 94.1943 96.4382L94.1876 96.7123C79.3255 97.2599 70.9097 102.533 70.8416 102.585Z" fill="url(#paint20_linear_8040_2972)"/>
<path fill-rule="evenodd" clip-rule="evenodd" d="M81.4544 134.539C81.4544 134.539 93.6102 132.88 105.591 133.455L105.095 139.004L82.3251 139.315L81.4544 134.539Z" fill="url(#paint21_linear_8040_2972)"/>
<path fill-rule="evenodd" clip-rule="evenodd" d="M76.5875 40.2723C76.5875 40.2723 92.2737 32.5345 112.378 40.8567L110.134 37.1299C110.134 37.1299 98.5345 31.4295 79.8248 35.3347L76.5875 40.2723Z" fill="url(#paint22_linear_8040_2972)"/>
<path fill-rule="evenodd" clip-rule="evenodd" d="M93.4367 98.4136C93.4315 98.9017 93.0144 99.2728 92.5263 99.2676C92.0381 99.2624 91.667 98.8453 91.6722 98.3572C91.6774 97.8691 92.0945 97.498 92.5826 97.5032C93.0367 97.5343 93.4419 97.9254 93.4367 98.4136Z" fill="url(#paint23_linear_8040_2972)"/>
<path fill-rule="evenodd" clip-rule="evenodd" d="M93.222 98.4154C93.199 98.8094 92.8842 99.1028 92.516 99.1139C92.1219 99.0909 91.8286 98.7761 91.8175 98.4079C91.8405 98.0138 92.1553 97.7205 92.5235 97.7094C92.9175 97.7324 93.2449 98.0213 93.222 98.4154Z" fill="url(#paint24_linear_8040_2972)"/>
<path fill-rule="evenodd" clip-rule="evenodd" d="M93.4762 94.0798C93.471 94.5679 93.054 94.939 92.5658 94.9338C92.0777 94.9286 91.7066 94.5115 91.7118 94.0234C91.717 93.5352 92.1341 93.1642 92.6222 93.1694C93.1103 93.1746 93.4814 93.5916 93.4762 94.0798Z" fill="url(#paint25_linear_8040_2972)"/>
<path fill-rule="evenodd" clip-rule="evenodd" d="M93.2967 94.0548C93.2737 94.4488 92.9589 94.7422 92.5907 94.7533C92.1966 94.7303 91.9033 94.4155 91.8922 94.0473C91.9152 93.6532 92.23 93.3599 92.5982 93.3488C92.9922 93.3718 93.2856 93.6866 93.2967 94.0548Z" fill="url(#paint26_linear_8040_2972)"/>
<path fill-rule="evenodd" clip-rule="evenodd" d="M79.3211 64.2312C79.2981 64.6253 78.9833 64.9186 78.6151 64.9297C78.2211 64.9067 77.9277 64.5919 77.9166 64.2238C77.9396 63.8297 78.2544 63.5364 78.6226 63.5253C79.0167 63.5483 79.31 63.8631 79.3211 64.2312Z" fill="url(#paint27_linear_8040_2972)"/>
<path fill-rule="evenodd" clip-rule="evenodd" d="M81.0677 51.8197C81.0447 52.2138 80.7299 52.5071 80.3617 52.5182C79.9676 52.4952 79.6743 52.1804 79.6632 51.8123C79.6862 51.4182 80.001 51.1249 80.3692 51.1138C80.7632 51.1368 81.0566 51.4516 81.0677 51.8197Z" fill="url(#paint28_linear_8040_2972)"/>
<path fill-rule="evenodd" clip-rule="evenodd" d="M87.4051 74.2204C87.3821 74.6144 87.0673 74.9078 86.6991 74.9189C86.305 74.8959 86.0117 74.581 86.0006 74.2129C86.0236 73.8188 86.3384 73.5255 86.7066 73.5144C87.0747 73.5033 87.368 73.8181 87.4051 74.2204Z" fill="url(#paint29_linear_8040_2972)"/>
<path fill-rule="evenodd" clip-rule="evenodd" d="M100.978 75.5144C100.955 75.9085 100.64 76.2018 100.272 76.2129C99.8778 76.1899 99.5845 75.8751 99.5734 75.507C99.5964 75.1129 99.9112 74.8196 100.279 74.8085C100.707 74.8055 101.001 75.1204 100.978 75.5144Z" fill="url(#paint30_linear_8040_2972)"/>
<path fill-rule="evenodd" clip-rule="evenodd" d="M110.325 67.4347C110.302 67.8288 109.987 68.1221 109.619 68.1332C109.225 68.1102 108.932 67.7954 108.921 67.4273C108.944 67.0332 109.258 66.7399 109.626 66.7288C110.055 66.7258 110.348 67.0406 110.325 67.4347Z" fill="url(#paint31_linear_8040_2972)"/>
<path fill-rule="evenodd" clip-rule="evenodd" d="M109.207 51.8227C109.184 52.2167 108.87 52.51 108.501 52.5211C108.133 52.5322 107.814 52.1833 107.803 51.8152C107.826 51.4211 108.141 51.1278 108.509 51.1167C108.903 51.1397 109.196 51.4545 109.207 51.8227Z" fill="url(#paint32_linear_8040_2972)"/>
<path fill-rule="evenodd" clip-rule="evenodd" d="M102.403 43.6572C102.38 44.0513 102.065 44.3446 101.697 44.3557C101.303 44.3327 101.01 44.0179 100.999 43.6497C101.022 43.2557 101.336 42.9623 101.705 42.9512C102.099 42.9742 102.392 43.289 102.403 43.6572Z" fill="url(#paint33_linear_8040_2972)"/>
<path fill-rule="evenodd" clip-rule="evenodd" d="M90.7469 42.1964C90.7239 42.5904 90.4091 42.8838 90.0409 42.8949C89.6468 42.8719 89.3535 42.5571 89.3424 42.1889C89.3654 41.7948 89.6802 41.5015 90.0484 41.4904C90.4424 41.5134 90.7358 41.8282 90.7469 42.1964Z" fill="url(#paint34_linear_8040_2972)"/>
<g filter="url(#filter2_d_8040_2972)">
<path fill-rule="evenodd" clip-rule="evenodd" d="M99.475 110.874L101.796 110.883L98.8395 147.94L97.255 147.908L99.475 110.874Z" fill="url(#paint35_linear_8040_2972)"/>
</g>
<g filter="url(#filter3_d_8040_2972)">
<path fill-rule="evenodd" clip-rule="evenodd" d="M98.979 119.147C99.0255 118.372 97.9001 118.218 97.7372 118.978V118.978C97.7286 119.018 97.724 119.059 97.7233 119.1L97.2551 147.908L98.979 119.147Z" fill="url(#paint36_linear_8040_2972)"/>
</g>
<path fill-rule="evenodd" clip-rule="evenodd" d="M118.176 54.8441C118.176 54.8441 122.281 54.0879 119.223 58.836L118.176 54.8441Z" fill="url(#paint37_linear_8040_2972)"/>
<path fill-rule="evenodd" clip-rule="evenodd" d="M70.5131 53.5017C70.5131 53.5017 66.7012 54.5727 69.3574 57.2861L70.5131 53.5017Z" fill="url(#paint38_linear_8040_2972)"/>
<path fill-rule="evenodd" clip-rule="evenodd" d="M79.1599 110.405C79.1629 110.834 78.8999 111.195 78.5658 111.18C78.2318 111.165 78.0066 110.799 78.0036 110.371C78.0007 109.942 78.2637 109.581 78.5977 109.596C78.9318 109.611 79.157 109.977 79.1599 110.405Z" fill="url(#paint39_linear_8040_2972)"/>
<path fill-rule="evenodd" clip-rule="evenodd" d="M108.529 108.774C108.532 109.202 108.235 109.589 107.875 109.54C107.541 109.525 107.221 109.176 107.253 108.722C107.25 108.294 107.547 107.907 107.907 107.956C108.267 108.005 108.526 108.345 108.529 108.774Z" fill="url(#paint40_linear_8040_2972)"/>
<path fill-rule="evenodd" clip-rule="evenodd" d="M94.7735 108.371C94.7764 108.8 94.4194 109.179 93.9653 109.148C93.5372 109.151 93.1579 108.794 93.189 108.34C93.1861 107.911 93.5431 107.532 93.9972 107.563C94.4513 107.594 94.7705 107.943 94.7735 108.371Z" fill="url(#paint41_linear_8040_2972)"/>
</g>
<defs>
<filter id="filter0_d_8040_2972" x="91.5166" y="105.776" width="48.4717" height="70.3848" filterUnits="userSpaceOnUse" color-interpolation-filters="sRGB">
<feFlood flood-opacity="0" result="BackgroundImageFix"/>
<feColorMatrix in="SourceAlpha" type="matrix" values="0 0 0 0 0 0 0 0 0 0 0 0 0 0 0 0 0 0 127 0" result="hardAlpha"/>
<feOffset dy="9"/>
<feGaussianBlur stdDeviation="9.5"/>
<feComposite in2="hardAlpha" operator="out"/>
<feColorMatrix type="matrix" values="0 0 0 0 0 0 0 0 0 0 0 0 0 0 0 0 0 0 0.15 0"/>
<feBlend mode="normal" in2="BackgroundImageFix" result="effect1_dropShadow_8040_2972"/>
<feBlend mode="normal" in="SourceGraphic" in2="effect1_dropShadow_8040_2972" result="shape"/>
</filter>
<filter id="filter1_d_8040_2972" x="46.2026" y="104.999" width="48.3223" height="70.5581" filterUnits="userSpaceOnUse" color-interpolation-filters="sRGB">
<feFlood flood-opacity="0" result="BackgroundImageFix"/>
<feColorMatrix in="SourceAlpha" type="matrix" values="0 0 0 0 0 0 0 0 0 0 0 0 0 0 0 0 0 0 127 0" result="hardAlpha"/>
<feOffset dy="9"/>
<feGaussianBlur stdDeviation="9.5"/>
<feComposite in2="hardAlpha" operator="out"/>
<feColorMatrix type="matrix" values="0 0 0 0 0 0 0 0 0 0 0 0 0 0 0 0 0 0 0.15 0"/>
<feBlend mode="normal" in2="BackgroundImageFix" result="effect1_dropShadow_8040_2972"/>
<feBlend mode="normal" in="SourceGraphic" in2="effect1_dropShadow_8040_2972" result="shape"/>
</filter>
<filter id="filter2_d_8040_2972" x="78.2549" y="100.874" width="42.541" height="75.0665" filterUnits="userSpaceOnUse" color-interpolation-filters="sRGB">
<feFlood flood-opacity="0" result="BackgroundImageFix"/>
<feColorMatrix in="SourceAlpha" type="matrix" values="0 0 0 0 0 0 0 0 0 0 0 0 0 0 0 0 0 0 127 0" result="hardAlpha"/>
<feOffset dy="9"/>
<feGaussianBlur stdDeviation="9.5"/>
<feComposite in2="hardAlpha" operator="out"/>
<feColorMatrix type="matrix" values="0 0 0 0 0 0 0 0 0 0 0 0 0 0 0 0 0 0 0.15 0"/>
<feBlend mode="normal" in2="BackgroundImageFix" result="effect1_dropShadow_8040_2972"/>
<feBlend mode="normal" in="SourceGraphic" in2="effect1_dropShadow_8040_2972" result="shape"/>
</filter>
<filter id="filter3_d_8040_2972" x="78.2549" y="108.481" width="39.7256" height="67.4276" filterUnits="userSpaceOnUse" color-interpolation-filters="sRGB">
<feFlood flood-opacity="0" result="BackgroundImageFix"/>
<feColorMatrix in="SourceAlpha" type="matrix" values="0 0 0 0 0 0 0 0 0 0 0 0 0 0 0 0 0 0 127 0" result="hardAlpha"/>
<feOffset dy="9"/>
<feGaussianBlur stdDeviation="9.5"/>
<feComposite in2="hardAlpha" operator="out"/>
<feColorMatrix type="matrix" values="0 0 0 0 0 0 0 0 0 0 0 0 0 0 0 0 0 0 0.15 0"/>
<feBlend mode="normal" in2="BackgroundImageFix" result="effect1_dropShadow_8040_2972"/>
<feBlend mode="normal" in="SourceGraphic" in2="effect1_dropShadow_8040_2972" result="shape"/>
</filter>
<linearGradient id="paint0_linear_8040_2972" x1="82.6672" y1="133.276" x2="83.6935" y2="154.897" gradientUnits="userSpaceOnUse">
<stop offset="0.107499" stop-color="#7AC6FF"/>
<stop offset="0.885131" stop-color="#1D147C" stop-opacity="0.19"/>
</linearGradient>
<linearGradient id="paint1_linear_8040_2972" x1="96.4823" y1="132.202" x2="97.6299" y2="156.381" gradientUnits="userSpaceOnUse">
<stop offset="0.107499" stop-color="#7AC6FF"/>
<stop offset="0.885131" stop-color="#1D147C" stop-opacity="0.19"/>
</linearGradient>
<linearGradient id="paint2_linear_8040_2972" x1="89.9147" y1="137.702" x2="91.1678" y2="160.245" gradientUnits="userSpaceOnUse">
<stop offset="0.107499" stop-color="#7AC6FF"/>
<stop offset="0.885131" stop-color="#1D147C" stop-opacity="0.19"/>
</linearGradient>
<linearGradient id="paint3_linear_8040_2972" x1="193.58" y1="94.332" x2="146.57" y2="-39.9392" gradientUnits="userSpaceOnUse">
<stop offset="0.0416667" stop-color="#0129B4"/>
<stop offset="0.358336" stop-color="#7628DA"/>
<stop offset="0.733513" stop-color="#8C95FF"/>
</linearGradient>
<linearGradient id="paint4_linear_8040_2972" x1="193.58" y1="94.332" x2="146.57" y2="-39.9392" gradientUnits="userSpaceOnUse">
<stop offset="0.0416667" stop-color="#4E9CDB"/>
<stop offset="0.46875" stop-color="#5761D7"/>
<stop offset="0.9999" stop-color="#7628DA"/>
</linearGradient>
<linearGradient id="paint5_linear_8040_2972" x1="193.447" y1="93.1305" x2="176.571" y2="9.63455" gradientUnits="userSpaceOnUse">
<stop offset="0.0416667" stop-color="#4E9CDB"/>
<stop offset="0.46875" stop-color="#5761D7"/>
<stop offset="0.9999" stop-color="#7628DA"/>
</linearGradient>
<linearGradient id="paint6_linear_8040_2972" x1="174.636" y1="95.0007" x2="136.322" y2="-14.4948" gradientUnits="userSpaceOnUse">
<stop offset="0.0416667" stop-color="#4E9CDB"/>
<stop offset="0.46875" stop-color="#5761D7"/>
<stop offset="0.9999" stop-color="#7628DA"/>
</linearGradient>
<linearGradient id="paint7_linear_8040_2972" x1="174.593" y1="95.0947" x2="136.252" y2="-14.4175" gradientUnits="userSpaceOnUse">
<stop offset="0.0416667" stop-color="#4E9CDB"/>
<stop offset="0.46875" stop-color="#5761D7"/>
<stop offset="0.9999" stop-color="#7628DA"/>
</linearGradient>
<linearGradient id="paint8_linear_8040_2972" x1="150.026" y1="94.2101" x2="83.2818" y2="-15.8495" gradientUnits="userSpaceOnUse">
<stop offset="0.0416667" stop-color="#4E9CDB"/>
<stop offset="0.46875" stop-color="#5761D7"/>
<stop offset="0.9999" stop-color="#7628DA"/>
</linearGradient>
<linearGradient id="paint9_linear_8040_2972" x1="43.8763" y1="65.252" x2="172.653" y2="120.167" gradientUnits="userSpaceOnUse">
<stop offset="0.649036" stop-color="#1673FF"/>
<stop offset="0.904668" stop-color="#5192E2"/>
</linearGradient>
<linearGradient id="paint10_linear_8040_2972" x1="-12.1961" y1="38.6002" x2="130.342" y2="53.5227" gradientUnits="userSpaceOnUse">
<stop offset="0.649036" stop-color="#1673FF"/>
<stop offset="0.904668" stop-color="#5192E2"/>
</linearGradient>
<linearGradient id="paint11_linear_8040_2972" x1="133.322" y1="18.4308" x2="22.5476" y2="-20.4059" gradientUnits="userSpaceOnUse">
<stop offset="0.120943" stop-color="#5CB6FF"/>
<stop offset="0.692214" stop-color="#005BFF"/>
</linearGradient>
<linearGradient id="paint12_linear_8040_2972" x1="93.6909" y1="33.1446" x2="95.0386" y2="14.6291" gradientUnits="userSpaceOnUse">
<stop offset="0.443606" stop-color="#D3ECFF"/>
<stop offset="1" stop-color="#548EF7"/>
</linearGradient>
<linearGradient id="paint13_linear_8040_2972" x1="116.174" y1="88.8417" x2="68.559" y2="60.3648" gradientUnits="userSpaceOnUse">
<stop offset="0.120943" stop-color="#5CB6FF"/>
<stop offset="0.654504" stop-color="#56A8EB"/>
<stop offset="1" stop-color="#005BFF"/>
</linearGradient>
<linearGradient id="paint14_linear_8040_2972" x1="-12.8488" y1="-40.4768" x2="182.6" y2="29.1395" gradientUnits="userSpaceOnUse">
<stop offset="0.649036" stop-color="#1673FF"/>
<stop offset="0.904668" stop-color="#5192E2"/>
</linearGradient>
<linearGradient id="paint15_linear_8040_2972" x1="-12.8498" y1="-41.6056" x2="182.611" y2="28.0579" gradientUnits="userSpaceOnUse">
<stop offset="0.649036" stop-color="#1673FF"/>
<stop offset="0.904668" stop-color="#5192E2"/>
</linearGradient>
<linearGradient id="paint16_linear_8040_2972" x1="10.0931" y1="-21.2982" x2="164.479" y2="33.5713" gradientUnits="userSpaceOnUse">
<stop offset="0.649036" stop-color="#1673FF"/>
<stop offset="0.904668" stop-color="#5192E2"/>
</linearGradient>
<linearGradient id="paint17_linear_8040_2972" x1="90.1945" y1="116.148" x2="97.8897" y2="4.94385" gradientUnits="userSpaceOnUse">
<stop offset="0.443606" stop-color="#D3ECFF"/>
<stop offset="1" stop-color="#548EF7"/>
</linearGradient>
<linearGradient id="paint18_linear_8040_2972" x1="92.9205" y1="111.576" x2="94.5895" y2="111.594" gradientUnits="userSpaceOnUse">
<stop offset="0.649036" stop-color="#1673FF"/>
<stop offset="0.904668" stop-color="#5192E2"/>
</linearGradient>
<linearGradient id="paint19_linear_8040_2972" x1="21.0291" y1="50.5059" x2="146.812" y2="118.089" gradientUnits="userSpaceOnUse">
<stop offset="0.649036" stop-color="#1673FF"/>
<stop offset="0.904668" stop-color="#5192E2"/>
</linearGradient>
<linearGradient id="paint20_linear_8040_2972" x1="49.1467" y1="78.2228" x2="97.6994" y2="114.781" gradientUnits="userSpaceOnUse">
<stop offset="0.649036" stop-color="#1673FF"/>
<stop offset="0.904668" stop-color="#5192E2"/>
</linearGradient>
<linearGradient id="paint21_linear_8040_2972" x1="128.5" y1="101.5" x2="88.2683" y2="82.6629" gradientUnits="userSpaceOnUse">
<stop offset="0.120943" stop-color="#5CB6FF"/>
<stop offset="0.271469" stop-color="#56A8EB"/>
<stop offset="1" stop-color="#005BFF"/>
</linearGradient>
<linearGradient id="paint22_linear_8040_2972" x1="24.3717" y1="-23.0341" x2="149.857" y2="33.1201" gradientUnits="userSpaceOnUse">
<stop offset="0.649036" stop-color="#1673FF"/>
<stop offset="0.904668" stop-color="#5192E2"/>
</linearGradient>
<linearGradient id="paint23_linear_8040_2972" x1="87.6168" y1="93.6775" x2="96.656" y2="96.8974" gradientUnits="userSpaceOnUse">
<stop offset="0.649036" stop-color="#1673FF"/>
<stop offset="0.904668" stop-color="#5192E2"/>
</linearGradient>
<linearGradient id="paint24_linear_8040_2972" x1="88.651" y1="94.7273" x2="95.7478" y2="97.3315" gradientUnits="userSpaceOnUse">
<stop offset="0.649036" stop-color="#1673FF"/>
<stop offset="0.904668" stop-color="#5192E2"/>
</linearGradient>
<linearGradient id="paint25_linear_8040_2972" x1="87.6552" y1="89.3446" x2="96.7036" y2="92.6035" gradientUnits="userSpaceOnUse">
<stop offset="0.649036" stop-color="#1673FF"/>
<stop offset="0.904668" stop-color="#5192E2"/>
</linearGradient>
<linearGradient id="paint26_linear_8040_2972" x1="88.7273" y1="90.3655" x2="95.8122" y2="92.9172" gradientUnits="userSpaceOnUse">
<stop offset="0.649036" stop-color="#1673FF"/>
<stop offset="0.904668" stop-color="#5192E2"/>
</linearGradient>
<linearGradient id="paint27_linear_8040_2972" x1="78.4114" y1="66.9343" x2="78.7477" y2="61.595" gradientUnits="userSpaceOnUse">
<stop offset="0.443606" stop-color="#D3ECFF"/>
<stop offset="1" stop-color="#548EF7"/>
</linearGradient>
<linearGradient id="paint28_linear_8040_2972" x1="80.1579" y1="54.5228" x2="80.4943" y2="49.1835" gradientUnits="userSpaceOnUse">
<stop offset="0.443606" stop-color="#D3ECFF"/>
<stop offset="1" stop-color="#548EF7"/>
</linearGradient>
<linearGradient id="paint29_linear_8040_2972" x1="86.4954" y1="76.9235" x2="86.8317" y2="71.5841" gradientUnits="userSpaceOnUse">
<stop offset="0.443606" stop-color="#D3ECFF"/>
<stop offset="1" stop-color="#548EF7"/>
</linearGradient>
<linearGradient id="paint30_linear_8040_2972" x1="100.048" y1="78.2328" x2="100.328" y2="72.8392" gradientUnits="userSpaceOnUse">
<stop offset="0.443606" stop-color="#D3ECFF"/>
<stop offset="1" stop-color="#548EF7"/>
</linearGradient>
<linearGradient id="paint31_linear_8040_2972" x1="109.395" y1="70.1531" x2="109.675" y2="64.7595" gradientUnits="userSpaceOnUse">
<stop offset="0.443606" stop-color="#D3ECFF"/>
<stop offset="1" stop-color="#548EF7"/>
</linearGradient>
<linearGradient id="paint32_linear_8040_2972" x1="108.298" y1="54.5257" x2="108.634" y2="49.1864" gradientUnits="userSpaceOnUse">
<stop offset="0.443606" stop-color="#D3ECFF"/>
<stop offset="1" stop-color="#548EF7"/>
</linearGradient>
<linearGradient id="paint33_linear_8040_2972" x1="101.493" y1="46.3603" x2="101.83" y2="41.021" gradientUnits="userSpaceOnUse">
<stop offset="0.443606" stop-color="#D3ECFF"/>
<stop offset="1" stop-color="#548EF7"/>
</linearGradient>
<linearGradient id="paint34_linear_8040_2972" x1="89.8371" y1="44.8995" x2="90.1735" y2="39.5602" gradientUnits="userSpaceOnUse">
<stop offset="0.443606" stop-color="#D3ECFF"/>
<stop offset="1" stop-color="#548EF7"/>
</linearGradient>
<linearGradient id="paint35_linear_8040_2972" x1="19.3597" y1="50.3706" x2="166.011" y2="94.6995" gradientUnits="userSpaceOnUse">
<stop offset="0.649036" stop-color="#1673FF"/>
<stop offset="0.904668" stop-color="#5192E2"/>
</linearGradient>
<linearGradient id="paint36_linear_8040_2972" x1="21.5045" y1="52.8469" x2="162.023" y2="92.484" gradientUnits="userSpaceOnUse">
<stop offset="0.649036" stop-color="#1673FF"/>
<stop offset="0.904668" stop-color="#5192E2"/>
</linearGradient>
<linearGradient id="paint37_linear_8040_2972" x1="119.627" y1="63.1689" x2="122.252" y2="50.6636" gradientUnits="userSpaceOnUse">
<stop offset="0.443606" stop-color="#D3ECFF"/>
<stop offset="1" stop-color="#548EF7"/>
</linearGradient>
<linearGradient id="paint38_linear_8040_2972" x1="68.7553" y1="60.8964" x2="68.2384" y2="49.985" gradientUnits="userSpaceOnUse">
<stop offset="0.443606" stop-color="#D3ECFF"/>
<stop offset="1" stop-color="#548EF7"/>
</linearGradient>
<linearGradient id="paint39_linear_8040_2972" x1="74.5771" y1="106.47" x2="81.9208" y2="108.784" gradientUnits="userSpaceOnUse">
<stop offset="0.649036" stop-color="#1673FF"/>
<stop offset="0.904668" stop-color="#5192E2"/>
</linearGradient>
<linearGradient id="paint40_linear_8040_2972" x1="103.709" y1="104.668" x2="111.366" y2="107.08" gradientUnits="userSpaceOnUse">
<stop offset="0.649036" stop-color="#1673FF"/>
<stop offset="0.904668" stop-color="#5192E2"/>
</linearGradient>
<linearGradient id="paint41_linear_8040_2972" x1="89.4791" y1="104.062" x2="97.7179" y2="106.981" gradientUnits="userSpaceOnUse">
<stop offset="0.649036" stop-color="#1673FF"/>
<stop offset="0.904668" stop-color="#5192E2"/>
</linearGradient>
<clipPath id="clip0_8040_2972">
<rect width="180.445" height="173" fill="white" transform="translate(0.495117)"/>
</clipPath>
</defs>
</svg>
