<svg width="66" height="67" viewBox="0 0 66 67" fill="none" xmlns="http://www.w3.org/2000/svg">
<g filter="url(#filter0_d_7283_17921)">
<path d="M65.986 20.4472C65.986 11.77 58.9521 4.73613 50.275 4.73612C41.5978 4.73612 34.564 11.77 34.564 20.4472C34.564 29.1244 41.5978 36.1581 50.275 36.1581C52.6063 36.1581 54.8399 38.1103 54.2078 40.3542C49.3363 57.6475 37.2739 67.7297 50.6733 57.8915C66.9273 45.9571 66.0034 20.9273 65.9852 20.4686C65.9852 20.4615 65.986 20.4551 65.986 20.4472Z" fill="url(#paint0_linear_7283_17921)"/>
<path d="M31.422 20.4472C31.422 11.77 24.3881 4.73612 15.7109 4.73612C7.03372 4.73612 -0.000131052 11.77 -0.000131811 20.4472C-0.000132569 29.1244 7.03384 36.1581 15.7111 36.1581C18.0423 36.1581 20.2759 38.1103 19.6438 40.3542C14.7723 57.6475 2.7099 67.7297 16.1093 57.8915C32.3633 45.9571 31.4395 20.9273 31.4212 20.4686C31.4212 20.4615 31.422 20.4551 31.422 20.4472Z" fill="url(#paint1_linear_7283_17921)"/>
</g>
<defs>
<filter id="filter0_d_7283_17921" x="-19" y="-5.26392" width="104" height="95.0179" filterUnits="userSpaceOnUse" color-interpolation-filters="sRGB">
<feFlood flood-opacity="0" result="BackgroundImageFix"/>
<feColorMatrix in="SourceAlpha" type="matrix" values="0 0 0 0 0 0 0 0 0 0 0 0 0 0 0 0 0 0 127 0" result="hardAlpha"/>
<feOffset dy="9"/>
<feGaussianBlur stdDeviation="9.5"/>
<feComposite in2="hardAlpha" operator="out"/>
<feColorMatrix type="matrix" values="0 0 0 0 0 0 0 0 0 0 0 0 0 0 0 0 0 0 0.15 0"/>
<feBlend mode="normal" in2="BackgroundImageFix" result="effect1_dropShadow_7283_17921"/>
<feBlend mode="normal" in="SourceGraphic" in2="effect1_dropShadow_7283_17921" result="shape"/>
</filter>
<linearGradient id="paint0_linear_7283_17921" x1="69.5442" y1="251.053" x2="-55.6977" y2="206.336" gradientUnits="userSpaceOnUse">
<stop stop-color="#7345D3"/>
<stop offset="0.644291" stop-color="#5470F0"/>
<stop offset="0.976972" stop-color="#1858CD"/>
</linearGradient>
<linearGradient id="paint1_linear_7283_17921" x1="34.9803" y1="251.054" x2="-90.2621" y2="206.335" gradientUnits="userSpaceOnUse">
<stop stop-color="#7345D3"/>
<stop offset="0.644291" stop-color="#5470F0"/>
<stop offset="0.976972" stop-color="#1858CD"/>
</linearGradient>
</defs>
</svg>
